<svg xmlns="http://www.w3.org/2000/svg" viewBox="0 0 177.89 363.7"><defs><style>.cls-1,.cls-2{fill:#878787;stroke:#f9f9f9;stroke-linecap:round;stroke-linejoin:round;stroke-width:0.25px;}.cls-2{fill-rule:evenodd;}</style></defs><g id="Finland">

<path id="445224" title="Lapin SHP" class="cls-1" d="M77.28,175l0,.13.07.11.08,0,0-.11,0-.1Zm.5-2.93.14-.18,0-.19-.08-.19-.11,0,0,.05,0,.07-.12.1-.26.27-.24.33,0,.23.16.16.18-.08.14-.16.06-.17Zm.13,2.19L78,174l0-.33h-.12l-.06.24-.05.14-.08.21,0,.12h.11Zm1.42.22,0,0-.11-.05-.17,0-.13,0-.07.18,0,.17-.06.11,0,0-.16.19-.26.26-.21,0h-.15l0,0h-.07l0,.08,0,.17.07.09.09.09.1,0,.06,0h0l.1.12.19.08.16,0h.11l0-.06v-.25l.07-.05h.09l.07,0,0-.1,0-.19-.09-.25,0-.25.14-.11.13.05.11.15.08.13.09,0,0-.18-.08-.26Zm-5.91-2.4,0,0-.1-.2-.14-.07-.15.14.06.2.16.09.09,0,0,.15.11.07v-.09l.06-.13,0-.19-.09,0Zm1,2.75-.13-.25.13.49h.07l0-.15,0-.1Zm8.23,1.74,0,.24h.08l.2,0,0-.11-.15-.07Zm-2.35.43v.2l.19.1-.09-.24Zm4,.78.06-.1-.11-.13-.06-.21-.12,0-.09.23,0,.26L84,178l.17.2.14-.09v-.14Zm1.38-.16-.24,0-.06.06.13.28.15.13,0,.06h0V178l0-.06.06-.07Zm-2.51-.69-.1.12v.17l.11.08.11-.14.06-.13,0-.26Zm-1,2.8h.13v0l-.13-.13Zm72.22-83.42-.92-1.21-2.51-5.36-.56-1.2h0L149.1,86l-.43-.63L148.2,85,144,83.17l-4.21-1.8-.55-.42-.39-.82-2.69-10.32-.3-1.15-.2-1v-.59l.18-.51,3.78-7.51.45-1.31.8-3.07-1.08-1.2-1.22-.27-3,.24-.26-.2-.2-.39,0-.75.67-.07,3.79-2.78,1.77-.68,1.78-1.76-1.69-2.18-.17-.43v-.67l.25-3.08.12-.92.18-.54,5.37-6.68,1.7-3.67-2.08-5.12-.83-3.3-.23-.44-4.79-2.37-4.79-2.37-.57-.25-.56-.46-.36-.86,0-1.44-2.83-1.28-.32-.36-2.75-4.95L128,3.6l-.44-.76-.45-.2-1.1.71L124.13,3l-.78.27-.61.91-.11.75-1.74.87-1,1.25-.24.11-.23,0-.21.11-.17.39.11.09.21.29.11.09-.6.83-3.11,1.19-.29,0-1.08-.84-.39,0-.44.14-.82-.61-.46-.16L111,9l-1-.28-2.55.42-.49.3-.29.81-.52.75-.15.33.18.77-.43.88-1.5,1.74-.72,1.56-.66,1.12-.18.38-.19.32-.24.18-2.21.62-.39.31-.35.61-.19.5-.1.45,0,.42.24.39.36.95,0,1-.26.92-.38.71-.89.7-.2.47.06.26.16.24.07.3-.21.46-.09.5v1l-.13.35-.18.25-.35,1,.46,1.62.07.35L96.45,35l-.18.59L95.72,39l0,1.11.24,1.09.08.23.19.72,0,.29,0,.32,0,.2-.06.14,0,.17,0,1.37,0,.28-.11.4v.26l.22.65v.17l0,.17,0,.18.12.22.28.3.12.2,0,.29-.13.53-.61.61-.17.52-.08.55-.16.41L95.1,51l-.25.53-.18.62-.21.57-.35.39-.38.08L92,52.58l-.7.16-.69.38-2.74,2.53-.56,1.14-.2.81-.07.9,0,1.89-.07.31-.09.23v.25l.18.34-.17.83-.22.4-.29.16-.4.09-.94.69-.38,0-.43.41-.2.68-.17.72-.32.54-.38.09-.27-.35-.46-1.24-1.11-1.77L79.9,61.6l-2.68-.93L75,59.88l-2.14-1.46L72.54,58l-.48-.87-3-1.63-1.13,0-1,.69L66.7,58l-.48,1.65-1.38.83-2.36.38L58.3,63.55,58,63.4l-1.14-2L56.44,61l-.77-.23-2.47.44-3.76-2-.39-.09-.4,0L47,59.82l-.29-.12-.18-.76-.37-3.7-.22-.41-1.17-1L43.6,51.73l-.17-.42-.21-1-.2-.51-2-2.3-1.13-2.21-4.17-8.18-.36-.34-4.79-.84-3.17,2.16-.28.39-.24.63-.44,1.4,1.81,3.88-.84,1.8-.41.3-.57-.18-4.25-2.62-.41.24-1.37,2.57.77.75,1.76.28,1,1,.69.23.35.56v.74l-.24.66-.45.24,0,.83.31.5,2.45,1,1.19,1.13.94,1L30,57.12l.19.26.08.08.1.36.07.14.14.07h1.05l.3.2.13.41.09.46.44,1.26.18.39.47.46,1.13.33,1.32,1.37.81.58.3,1.26,2.68.8.66.85.09.25.42.6.2.38.18.24.07.05.11.11,0,.26,0,.29,0,.18.5.46,3.4,0,1,.31.05.09v.4l.06.09,1.17.09,1,.54.64.08.63.46h.27l.25-.09h.28l.41.42.43.72.43.54.88-.38.37.4.62,1.35.42.58,2.19,1.53.21.32.1.33,0,.32.08.34.2.39.66.85.23.66-.09.93.13.29,0,.32-.08,1-.06.35v.22l0,.36.05.07.06,0,.1.22h.32l1.25-.89.5,0,.2.29.16.42.6,2.34,0,.33.12.35,1.1,1.06.4.33,1.31,1.67,1,.4.28.5v.69l-.37.76-.48.41-1,.39-.5.43-.26.68-.07.92.05,1,.07.81v2.3l.06.48.16.61.16,1.54.12.64.35,1,.12.61,0,.93-.26.38-.53.42-.39.43.17.47-.28.79-.33.68-.18.74.19.94.49.66.55,0,.58-.28.6-.06,1,.67,1,.18.32.16.18.28,0,.86-.17,1.07v.9l.5.33-.33,1.18-.41.65-1.66.78-.29.34-.12.6-.05.74.08.27.27.15-.12.49-.14.41-.16.36-.18.3.1.75.26.49.32.42.4.78.15.17.13.24.05.41v.48l0,.32.06.28.1.34.54,1.23.35.6.26.25.45.2.36.51.84,1.91.57.8.31.55.41,1,.59,1.85,0,.27-.07.34-.22.12-.34,0-.32.09-.22.68-.47.82v.27l.16,1.37v.77l-.06.74-.11.69-.15.6.11.65.06.67,0,.64-.14.57-.3.33-.79.57,0,.41-.3.36-.46.24-.35.32v.59l-.37.16-.43.33-.36.56-.15.83.07.45.28.68.06.38,0,.5.07.67v.5l-.06.38-.12.48,0,.36,0,.41.22.82.13,1,.51,1.84.38.62.52.47,1.53.57.33.45.8,2.44.13.32.15.24.36.39.15.24.15.5.38,1.81,0,.55,0,.8.31.72.39.7.33,1.43.57,1v.9l.14.42.23.5.26.41.27.14.29-.24.1-.45,0-.53-.15-.5.59.48.57.26.16.15.43.68.71.36.16-.1.1-.17.05-.18,0-.16,0-.11.33-.28h.3l.31.07.36,0,.36-.46.64-1.63.36-.37.05-.06v-.55l0-.28.11-.08.13,0,.12,0,.77-.45.23-.29,0,.47-.15.17-.4.1-.25.22-.11.22-.2.68-.84,1.89-.22.68-.15.92.07.66.19.52.24.49.18.28.93.5.12.15,0,.27v1.38l.07.34.17.14.29-.07.18-.16.38-.48.52-.3.58-.09.58.11.54.28.15.19.27.55.19.23.3.05.7-.15.26.21.2.25.36-.11.2.11.17.32.09.36,0,.11.45-.52,1-1.47,2.89-3.17,1.73-.61,3.78.25,1.67-.47,3.72-2,.51.17-.06,1.45v1l.08.57.35.25,9.64.49,3.83-1.64,1-1.19,3.41-5.67.44-.37,1.55.92.27.05.28-.2-.08-.13.48-.62.55-.09.67,1,.55,1.66.33.74.4.55-.06.4v.09l6.32.86.66-.1,1.36-.61,1.35-.14.7-.35.52-.74.13-.56-.26-1-1.2-1.72-.31-.3-.26-.44.08-.12.21-.08v-.15l0-.12-.07-.51,0-.13,0-.11h.37l.05.09v.05l-.05.28v0l.34.11.34,0,1.29-.41,1.88.25.69-.21.27-.24.24-.57v-.81L140,162h-.23l-.46-.26-.9-.78,0-.06.13-.28-.08-.19-.11-.16-.15-.33-.19-.58.16-.24.71-.08.45-.19.19-.18.12-.51,0-.26.19-.36.43-.49,0-.28-.34-.39-.08-.07v-.18L140,156l.3-.82,0-.21,0,0-.08,0-.13,0,0-.08,0-.27-.2-.21-.22,0-.35.06-.55.24h-.2v0l0-.25v-.06l-.59-.36-.55-.59-.37-.9-.07-1.25.15-.85.25-.67.3-.5.29-.35.19-.06h.5l.17-.16.1-.46.07-.92.06-.55.07-.2.66-.42,6.41,2.4.75.06,1.27-.45,3.53-.08h0l-.17-1.55-.15-.64-1.69-2.85-.12-.29-.07-.39,0-.36,0-.33-.42-.72,0-.07-.6-2-3.43-5.88-.55-2.63.71-3.14h0l4.85-9.14.76-.92.15-.24.09-.27.17-.68.17-.39,5.84-8,.25-.7.39-1.75.07-.5.13-2.5.06-.5.15-.4.32-.52Z" transform="translate(-3.89 -2.52)"/>

<polygon id="445285" title="Keski-Suomen SHP" class="cls-2" points="95.28 249.86 96.13 249.71 97.73 249 97.89 249.1 98.21 249.43 98.11 249.87 97.17 251.52 96.99 251.91 97.09 252.46 97.32 252.75 97.68 253.61 98.15 255.56 98.42 256.49 98.4 256.89 98.08 257.03 97.99 257.32 98 258.01 98.08 259 98.69 259.87 99.16 260.87 99.71 261.84 100.13 262.28 100.33 262.68 99.67 262.58 99.3 262.71 99.15 262.88 99.19 263.44 99.35 263.71 99.72 264.2 100.14 264.49 100.4 264.53 100.48 264.94 100.29 265.36 99.99 265.69 99.83 265.72 99.25 265.51 98.42 265.42 96.65 265.95 96.47 266.49 96.71 266.92 97.2 267.44 98.17 268.07 98.47 268.42 98.41 268.5 98.09 268.98 98.27 269.37 101.02 271.76 101.23 271.86 101.52 271.51 101.83 271.03 102.19 271.06 102.66 271.46 103.17 272.05 103.38 272.44 103.47 272.9 103.62 273.5 103.98 273.96 104.3 274.98 104.5 276 104.43 276.48 104.28 276.79 104.32 276.81 104.38 276.82 104.43 276.84 104.47 277.01 104.29 277.38 102.81 279.23 102.9 279.64 104.39 280.95 104.81 281.16 105.82 281.26 106.19 281.57 106.1 282.2 105.99 282.63 105.92 282.84 105.83 283.06 105.92 283.41 107 284.41 106.95 284.65 106.25 284.85 105.8 285.1 105.62 285.33 105.52 285.7 105.56 285.73 105.67 285.77 105.71 285.8 105.67 286.02 105.58 286.17 105.36 286.36 104.94 286.51 104.88 286.87 104.94 287.03 105.03 287.4 105.07 287.84 105.07 288.09 105.23 288.42 105.38 288.58 105.25 288.71 104.88 288.68 104.49 288.42 104.08 287.96 103.92 287.84 103.56 287.75 103.37 287.78 103.06 287.93 102.83 288.28 102.9 288.32 102.97 288.35 103.02 288.38 102.98 288.57 102.89 288.71 102.71 288.94 102.5 289.1 102.38 289.16 101.96 288.79 101.6 288.8 100.63 289.63 99.31 291.54 99.35 292.68 101.45 296.14 101.4 296.93 101.02 297.17 100.83 297.74 100.8 298.52 100.63 299.48 100.72 299.46 101.16 299.47 101.29 299.75 101.29 300.05 101.2 301.2 101.27 301.71 101.4 301.95 102.69 303.39 102.89 303.73 103.38 304.73 103.5 305.16 103.5 305.63 103.29 307.12 103.02 307.35 101.52 306.57 101.2 306.7 101.02 307.19 100.98 307.41 100.98 307.56 100.93 307.77 100.58 308.02 100.41 308.08 100.3 307.8 100.23 307.56 100.24 307.31 100.3 307.12 100.18 306.76 99.97 306.7 99.43 306.77 98.13 307.34 98 307.49 97.86 307.5 97.46 306.98 96.85 306.71 96.7 306.56 96.55 306.28 96.55 306.2 96.62 306.14 96.7 305.92 96.76 305.62 96.88 305.2 96.91 305.05 96.85 304.91 96.74 304.79 96.67 304.61 96.48 304.36 96.15 304.64 95.84 304.57 95.7 304.36 95.51 303.69 95.39 303.4 95.18 303.14 94.6 302.61 94.47 302.76 94.41 303.02 94.25 303.31 94.01 303.38 93.86 303.34 93.8 303.06 93.87 302.84 93.91 302.5 93.8 302.25 93.67 302.16 93.51 302.53 93.42 302.91 93 304.12 92.46 305.17 92.23 305.43 92 305.42 92.13 305.14 91.86 305.07 91.15 305.03 90.76 305.09 90.31 305.34 89.78 305.86 89.55 305.97 88.79 305.79 88.58 305.89 88.37 306.65 88 309.42 87.76 310.57 87.51 311.3 87.25 311.7 86.91 311.9 80.48 312.91 80.36 312.77 80.12 311.81 80.03 310.87 79.81 310.19 79.49 310.02 79.45 309.86 79.68 309.5 79.59 308.93 79.13 308.83 78.78 309.17 78.45 309.31 78.34 308.96 78.07 308.39 77.88 307.85 77.99 307.16 78.46 306.67 79.06 306.8 80.03 307.29 80.35 307.14 80.35 306.95 80.36 306.83 80.43 306.72 80.5 306.55 80.47 306.23 80.12 305.75 79.91 305.34 79.83 304.92 79.95 304.36 80.16 304.12 80.39 304.19 80.49 304.34 80.75 304.45 80.91 304.23 80.88 303.75 80.54 302.98 80.47 302.69 80.55 302.63 80.69 302.5 80.37 302.36 80.06 302.05 79.94 301.18 80.09 299.94 80.19 298.42 80.05 297.37 79.44 295.18 79.32 294.62 79.04 294.09 77.63 294.76 77.18 294.77 76.33 294.29 76.09 294 76.07 293.77 76.05 293.27 76.07 292.73 76.09 292.41 75.84 292.04 75.56 291.86 75.2 291.34 74.92 290.72 74.56 290.15 74.05 289.76 73.6 289.77 72.84 290.16 72.59 290.36 72.77 290.82 72.36 290.97 71.78 290.85 71.6 290.62 71.14 290.33 70.55 289.33 70.38 288.63 69.86 287.81 68.66 287.54 67.99 287.25 67.38 286.83 67.03 286.51 66.76 286.08 66.58 285.4 66.53 284.35 66.97 283.5 68.18 281.9 68.73 281.33 69.16 281.01 69.49 280.96 70.71 281.4 71.04 281.33 71.17 281.01 71.08 280.64 71.07 280.29 71.72 280.02 71.93 280.14 72.06 280.16 72.26 280.23 72.4 280.46 72.46 280.65 72.64 280.7 72.94 280.39 73.26 280.16 73.44 280.1 73.64 280.07 73.8 279.89 73.77 279.69 73.76 279.56 73.94 279.37 73.99 278.93 74 278.6 74.04 278.49 74.04 278.39 74 278.24 74.01 278.07 74.04 278.07 74.19 278.11 74.23 278.12 74.23 278 74.18 277.98 74.15 277.86 74.15 277.65 74.15 277.59 74.22 277.52 74.54 277.43 74.56 277.31 74.54 277.19 74.47 276.85 74.45 276.74 74.41 276.63 74.42 276.52 74.75 276.55 74.81 276.45 74.82 276.27 74.7 276.19 74.28 276.25 73.83 276.23 73.78 275.92 73.9 275.69 74.65 274.88 74.46 274.39 74.14 274.02 73.67 273.21 72.53 270.53 71.62 268.99 71.62 268.4 71.83 268.32 72.74 268.2 72.88 267.71 72.77 267.3 72.42 266.81 71.92 266.61 71.6 266.59 71.34 266.06 71.36 265.5 71.24 265.05 71.03 264.87 70.84 264.54 70.73 264.09 70.67 263.74 70.66 263.35 70.66 263.06 70.61 262.79 70.55 262.81 70.46 262.88 70.34 262.8 70.16 261.97 70.67 261.81 71.05 261.43 71.33 260.81 71.58 260.05 74.02 258.75 74.86 258.81 77.09 259.47 77.13 259.29 77.1 258.64 77.19 258.04 77.39 257.14 77.5 256.38 77.45 255.96 77.42 255.36 77.55 255.22 77.92 254.97 78.02 254.94 77.8 253.76 77.78 252.43 78.19 251.49 79.43 250.26 81.39 248.94 82.16 248.51 82.52 247.54 82.77 246.3 83.19 245.06 83.78 244.36 84.38 244.22 85.55 244.5 86.25 244.84 87.53 246.18 88.21 246.52 91.82 246.97 92.56 247.45 93.75 248.97 94.41 249.59 95.28 249.86"/>

<polygon id="445223" title="Pohjois-Savon SHP" class="cls-2" points="117.25 232.77 117.65 232.67 117.79 232.5 117.76 232.41 117.73 232.38 118.13 232.35 118.55 232.49 119.9 233.43 121.41 233.98 125.29 237.67 125.85 237.97 126.39 238.41 127.41 240.2 128.51 240.93 128.77 241.36 129.02 241.64 129.41 241.43 129.69 241.01 129.98 240.43 130.24 239.78 130.46 239.15 130.91 239.57 131.74 240.75 132.09 241.02 133.28 241.17 133.71 241.35 133.95 241.53 134.12 241.81 134.07 241.89 133.84 242.37 134.11 243.52 134.24 244.41 134.51 245.16 134.89 245.55 135.12 245.94 134.95 246 134.62 246.06 134.32 246.24 134.19 246.5 134.26 247.11 134.4 247.44 134.58 248.17 134.72 248.93 134.92 249.64 135.22 250.18 135.62 250.63 136.26 251.18 136.39 251.62 136.34 251.94 136.31 252.21 136.27 252.98 136.2 253.39 136.02 253.77 135.53 254.47 135.48 254.68 135.59 254.85 135.64 254.9 135.57 255.09 134.79 255.73 134.72 255.89 134.9 256.01 134.86 256.23 134.28 257.13 134.64 257.52 135.08 257.84 135.78 258.57 138.09 261.97 140.67 263.96 140.75 264.52 140.57 264.72 139.75 265.22 139.56 265.39 139.46 265.69 139.53 265.75 139.75 266.04 139.83 266.1 139.77 266.27 139.63 266.33 139.37 266.31 139.13 266.14 139.02 266.02 138.93 266.27 139.03 266.6 139.26 266.91 139.72 267.24 140.06 267.92 140.49 268.38 141.21 268.78 141.11 269.19 139.26 270.77 138.79 270.98 138.13 270.57 137.53 269.89 136.9 269.48 136.52 269.57 136.14 270.6 135.88 271 135.09 271.47 134.7 272.19 135.52 273.86 135.29 274.08 135.19 274.21 135.01 274.57 134.87 275.11 134.74 275.56 134.53 276.02 134.31 276.4 134.2 276.52 134.15 276.61 134.47 276.65 134.25 276.94 133.96 277.11 132.47 277.24 132.23 277.43 133.06 277.74 133.05 278.14 132.84 278.24 132.71 278.08 131.53 277.83 131.25 277.56 131.19 277.74 131.23 277.84 131.27 277.87 131.29 277.92 131.12 279.08 130.96 279.52 130.8 279.69 130.65 280.03 130.91 280.48 131 280.85 130.88 281.25 130.56 281.35 129.48 280.94 129.34 281.13 129.4 281.3 129.63 281.49 129.67 281.64 129.64 281.82 129.53 281.89 129.42 281.88 129.22 281.93 129.02 282.11 128.93 282.26 128.97 282.48 129.09 282.55 129.28 282.74 129.39 283.05 129.42 283.28 129.53 283.55 129.94 283.83 130.02 283.87 129.96 284.29 129.75 284.54 129.24 284.67 128.7 284.61 128.28 284.66 126.5 285.84 126.28 286.44 126.18 286.82 125.7 286.99 124.79 286.95 124.58 287.09 124.9 287.11 124.84 287.44 124.69 287.64 124.39 287.54 124.06 287.16 123.7 286.83 123.45 286.97 122.93 287 122.79 287.04 121.69 285.78 121.39 285.11 121.69 284.36 121.26 284.15 120.59 283.97 120.59 283.92 120.63 283.75 120.64 283.64 120.3 283.38 118.42 281.52 117.91 280.91 117.66 280.74 117.22 280.33 116.95 280.25 116.91 280.19 116.6 279.84 116.13 279.57 116.05 279.46 115.56 279.34 115.59 279.43 115.71 279.84 115.62 280.04 115.51 280.1 114.94 280.63 114.55 280.8 114.19 280.84 113.42 281.16 113.16 281.15 113.08 280.97 112.79 280.58 112.53 280.45 112.25 280.39 111.45 280.83 110.92 280.89 110.22 280.61 110.01 280.59 109.84 280.69 109.86 281.17 109.95 281.48 109.72 281.49 108.68 280.83 108.39 280.85 108.11 281.1 107.94 281.33 107.81 281.63 107.86 281.66 108 281.73 107.79 282.02 107.51 282.18 107.06 282.17 106.19 281.57 105.82 281.26 104.81 281.16 104.39 280.95 102.9 279.64 102.81 279.23 104.29 277.38 104.47 277.01 104.43 276.84 104.38 276.82 104.32 276.81 104.28 276.79 104.43 276.48 104.5 276 104.3 274.98 103.98 273.96 103.62 273.5 103.47 272.9 103.38 272.44 103.17 272.05 102.66 271.46 102.19 271.06 101.83 271.03 101.52 271.51 101.23 271.86 101.02 271.76 98.27 269.37 98.09 268.98 98.41 268.5 98.47 268.42 98.17 268.07 97.2 267.44 96.71 266.92 96.47 266.49 96.65 265.95 98.42 265.42 99.25 265.51 99.83 265.72 99.99 265.69 100.29 265.36 100.48 264.94 100.4 264.53 100.14 264.49 99.72 264.2 99.35 263.71 99.19 263.44 99.15 262.88 99.3 262.71 99.67 262.58 100.33 262.68 100.13 262.28 99.71 261.84 99.16 260.87 98.69 259.87 98.08 259 98 258.01 97.99 257.32 98.08 257.03 98.4 256.89 98.42 256.49 98.15 255.56 97.68 253.61 97.32 252.75 97.09 252.46 96.99 251.91 97.17 251.52 98.11 249.87 98.21 249.43 97.89 249.1 97.73 249 98.17 248.19 98.29 247.86 98.37 247.47 98.53 246.28 98.64 245.81 98.95 245.22 99.31 244.93 99.91 244.62 99.97 243.5 99.42 238.21 99.21 237.37 100.11 235.8 105.93 230.72 108.56 229.78 116.16 231.82 116.49 232.1 116.87 232.71 117 232.75 117.25 232.77"/>

<polygon id="445101" title="Kainuun SHP" class="cls-2" points="147.11 179.36 150.68 179.18 150.69 179.18 150.61 179.37 150.61 179.38 150.49 180.7 150.67 183.84 150.52 185.13 148.97 187.23 148.46 188.43 149.14 189.14 151.21 189.06 152.19 189.5 152.28 190.83 152.13 191.12 151.96 191.35 151.83 191.59 151.82 191.94 152 192.25 152.26 192.31 152.44 192.43 152.37 192.9 152 193.4 149.75 193.95 149.15 194.5 148.73 195.47 148.57 196.97 149.25 199.9 150.2 202.26 151.41 203.77 152.84 204.14 155.56 204.16 156.15 204.47 156.4 204.73 156.42 204.95 156.34 205.2 156.28 205.54 156.25 205.98 156.22 206.19 156.25 206.38 156.42 206.76 156.58 207.03 157.16 207.7 157.41 208.37 157.31 209.04 157.01 209.62 156.65 209.99 154.14 211.25 154.04 211.38 153.98 211.58 154.04 211.68 154.13 211.73 154.18 211.79 154.2 212.39 154.25 212.7 154.36 213.03 154.33 213.12 154.32 213.22 154.33 213.31 154.36 213.41 154.52 213.49 154.55 213.57 154.5 213.8 155.17 214.23 155.68 214.9 155.57 215.71 155.25 216.58 155.12 217.46 155.42 218.1 156.02 218.68 157.07 219.34 159.38 220.16 160.1 220.73 160.53 221.34 160.85 221.96 161.22 222.43 162.06 222.67 162.54 222.98 162.87 223.49 162.75 224.19 162.49 224.86 162.49 225.42 162.67 225.97 162.93 226.61 163.28 228.05 163.2 229.18 162.78 230.17 162.15 231.19 162.15 231.19 162.15 231.19 159.49 234.39 158.56 236.57 157.61 237.84 155.4 238.81 154.62 239.36 154.61 239.36 154.39 239.2 153.61 239.33 151.45 240.43 151.2 240.46 151.09 240.41 150.86 240.11 150.75 239.86 150.03 235.66 149.81 235.29 149.58 235.15 138.95 236.2 133.6 234.81 132.82 234.86 132.03 235.22 132.02 235.34 131.99 235.83 131.89 236.2 131.68 236.77 130.46 239.15 130.24 239.78 129.98 240.43 129.69 241.01 129.41 241.43 129.02 241.64 128.77 241.36 128.51 240.93 127.41 240.2 126.39 238.41 125.85 237.97 125.29 237.67 121.41 233.98 119.9 233.43 118.55 232.49 118.13 232.35 117.73 232.38 117.76 232.41 117.79 232.5 117.65 232.67 117.25 232.77 117 232.75 116.87 232.71 116.49 232.1 116.16 231.82 108.56 229.78 107.54 228.92 107.32 228.3 107.19 226.89 107.1 222.64 106.9 221.97 106.35 221.89 106.03 221.77 105.89 221.68 105.79 221.4 105.87 220.48 105.68 220.22 105.46 220.18 104.44 220.23 103.92 220.13 103.53 219.88 102.89 219.19 102.7 219.03 102.68 218.27 102.58 217.55 101.81 216.31 100.39 214.99 100.07 214.61 100.36 214.32 100.46 214.15 100.49 213.9 100.47 213.91 100.43 213.91 100.41 213.85 100.87 213.65 101.08 213.49 102.09 212.39 102.48 212.18 103.6 211.91 103.81 211.75 103.77 211.71 103.64 211.67 103.6 211.51 103.78 211.38 103.97 211.31 104.18 210.88 104.34 210.38 104.56 210.16 104.89 210.08 105.03 209.99 105.24 209.67 105.26 209.44 105.19 209.16 105.23 208.89 107.04 208.71 107.62 208.48 108.52 207.37 108.77 207.15 109.03 206.82 109.05 206.57 109.1 206.14 109.09 205.96 108.89 205.96 108.85 205.95 109.07 205.28 109.4 204.78 110.33 203.84 112.14 202.7 113.09 202.7 114.81 203.16 115.36 203.17 115.75 203 116.03 202.48 115.83 202.35 116.16 202.04 116.21 201.68 116.13 201.3 116.1 200.94 116.2 200.18 116.3 199.66 116.38 199.37 116.41 199.05 116.17 198.81 116.1 198.76 116.07 198.68 116.22 198.36 116.04 197.92 115.34 196.96 114.58 196.12 114.6 194.97 114.97 194.28 115.8 193.68 121.7 192.92 123.09 193.52 123.46 193.45 123.75 192.95 123.94 192.21 124.1 191.36 124.3 190.54 124.85 189.27 125.52 188.56 126.29 188.22 133.32 186.69 134.22 186.28 134.19 185.69 134.1 185.58 133.63 185.49 133.77 185.45 133.97 185.28 134.3 184.75 134.76 183.83 134.88 183.53 134.84 183.44 134.78 183.24 134.73 183.16 135.22 182.76 139.15 180.96 141.62 180.66 142.81 179.99 143.54 178.29 144.07 178.22 145.1 178.55 146.12 179.1 147.11 179.36"/>

<path id="444996" data-name="Pohjois-Pohjanmaan SHP" class="cls-1" d="M76.81,209.66l-.13-.18-.14.09,0,.18h.27Zm-.9-.4-.08-.06v.08l0,.05Zm-.11.9,0-.08-.09.14h0Zm4.49-6,0,.13h0l.13-.05.11-.22v-.12l-.15.24Zm4.42-19.44,0,.16.07.07.11-.14.1,0,.09-.15,0-.07-.07-.09-.24-.21,0,0,0,.06-.05,0,0,.09.07.1Zm-1,6.15,0-.14-.11-.06.1.2Zm-2.24,10.63-.12.12-.07.18-.06.18.28.06.13-.14.08-.15-.11-.22Zm-5.71,10.36h.06l0-.23,0,.1Zm6.47-25.91V186l0,0,.1,0,.07-.1.17-.22,0-.21-.31,0-.12,0v.29Zm-3.54,13,.27.59.51.86.39-.15.38-.85.2.34.13.36.06.12-.14.52.18.22.32,0,.26-.08.13-.11.15-.26.13-.1.18,0,.18,0,.17,0,.16-.17-.22-.22-.9.12-.42-1,1.16-.73.27-.66.85-.07,1.25.37h1l.5-.31-.42-.49-.59.09-.84-.15-.44,0-.35,0-.14-.23.35-.23-.2-.51-.72-.27-1.38.4-1.28.11-1,1.08-.34.42.11.5Zm-2.54,11.67,0-.23-.09-.06-.07.06.05.28Zm13.74-14.39.11-.2,0-.1,0-.08-.06-.07-.22,0-.24.06,0,.42.26.22Zm-2.26-.9-.1-.09h-.13l-.07,0-.07,0-.06,0,0,.05,0,.11-.09.1-.07.2.13,0,.11-.14.08-.16.09,0,.14.09.14-.08h.15l-.08-.1Zm1.57,3.89-.09,0,0,.08,0,0,.12.06.15,0,.15.14.12-.13-.1,0-.17-.06ZM74,216.46l0-.13-.11-.06-.08,0-.08.08.08.13Zm14.58-28.75.08.07.26-.24.12.08,0-.15-.12-.13h-.18l-.21.07-.17.12.11,0,.06.05Zm1.14-3.19,0-.08,0-.18,0,0,0-.08-.07,0-.05.06v.13l.07,0Zm-3,10.07.08-.05,0-.18-.08-.15-.07.09-.06.17,0,.14,0,0ZM160.18,174l-.42-3.33-.12-.65-.53-1.53-.44-1.82-.17-.57-.58-1.53-.14-.63-.42-2.81-.3-1.43-.37-.93-1.22-1.72-2.08-3.92-.85-2.12-.35-1.19-.27-1.27-.08-.71h0l-3.53.08-1.27.45-.75-.06-6.41-2.4-.66.42-.07.2-.06.55L139,148l-.1.46-.17.16h-.5l-.19.06-.29.35-.3.5-.25.67-.15.85.07,1.25.37.9.55.59.59.36v.06l0,.25v0h.2l.55-.24.35-.06.22,0,.2.21,0,.27,0,.08.13,0,.08,0,0,0,0,.21-.3.82-.07.15v.18l.08.07.34.39,0,.28-.43.49-.19.36,0,.26-.12.51-.19.18-.45.19-.71.08-.16.24.19.58.15.33.11.16.08.19-.13.28,0,.06.9.78.46.26H140l.22.08v.81l-.24.57-.27.24-.69.21-1.88-.25-1.29.41-.34,0-.34-.11v0l.05-.28v-.05l-.05-.09h-.37l0,.11,0,.13.07.51,0,.12v.15l-.21.08-.08.12.26.44.31.3,1.2,1.72.26,1-.13.56-.52.74-.7.35-1.35.14-1.36.61-.66.1-6.32-.86v-.09l.06-.4-.4-.55-.33-.74-.55-1.66-.67-1-.55.09-.48.62.08.13-.28.2-.27-.05-1.55-.92-.44.37-3.41,5.67-1,1.19L112,174.27l-9.64-.49-.35-.25-.08-.57v-1l.06-1.45-.51-.17-3.72,2-1.67.47-3.78-.25-1.73.61-2.89,3.17-1,1.47-.45.52h0l0,.24.07.29.35.57.32.07.34-.11.4,0,.32.19,1.11,1.15.44.65.41.81.1.66-.21,1.31.17.59-.13.21-.25.54-.13.2-.21.12H89l-.2.13,1,1.21-.18.35-.09.07-.14.06.06.1.09.27.06.11-.2.49-.2,1.1-.21.36h.14l.12.06.24.19-.07.17-.13.55.11,0,.19.15.1.06-.16.16-.18.09-.18,0-.18,0,.09.53,0,.47-.15.39-.19.29-.49.54-.12.38-.1.77,1.66.49.47.47.11.2.1.22.06.28,0,.37.07.35.17.29L91,198l0,.2v.16l0,.16.1.19-.09.56.11.33.18.31.1.47-.08.47-.24.15-.33-.11-.34-.28-.53-.6-.27-.22-1.49-.24-.25.13.11.22-.07.1-.15.27-.08.11.48,1,.26.34.57.23.39.47.22.14.2-.07.19-.16h.18l.13.44,0,.24L90,204l0,.31.17.65-.1.12-1.41.46-.51-.22.25-.19.12,0h.14v-.22l-.35,0-.27-.15-.22-.27-.22-.4-.05-.17-.06-.49,0-.15-.16-.15-.12.06-.11.1H87l-.2-.34-.12-.39-.14-.32-.26-.14-.31.08-2.6,1.49-1.83.26-.54.36-.07.67-.62,0-.28.18-.11.59,0,.19.16.26v.16l-.12.2-.14,0-1.18-.67-.32,0-.27.13.17.3.55.54-.45.35-.2.22-.16.37v.21l.06.13.14.37-.23.53-.28.27-.6.37-.44.63-.17.08-.1.11-.06.26-.06.31-.08.26-.39.79-.1.39-.12.7,0,.06,0,.25v.28l-.28.25v.27l.07.31v.24l-.25.61-.27.21-.28.09-.3.24-.08.16-.08.43-.1.26-.16.14-.42-.11-.17.08-.08.2,0,.27V218l-.08.12h-.53l-.59.39-.06,0-.15.26-.15.12-.17,0-.19-.05.06.58-.24.32-.63.27-.31.29-.12.31-.18,1-.19.5-.45.63-.17.51-.06.54,0,.49.1.43.13.4-.28-.27-.63-.39-.3-.06-.29,1.08-.12.31-.21.21-.69.4-.22,0-.32-.23-.17.25-.07.5,0,.53h.1l-.25.35,2.59,1.94,2.27,1.11.85,1,.11.81.38,1.55.26.63.72.78.44.34,0,.27.2.83,0,.3.43.52,1.25.6.76.54.59.8,1.71,3.6,1,1.43,2,1.81,3.42,4,.41.86.77-.43.36-1,.24-1.24.43-1.24.59-.7.6-.14,1.16.28.71.34,1.28,1.34.68.33,3.61.46.74.48,1.19,1.52.66.61.87.28.85-.15,1.6-.71.44-.81.12-.33.07-.4.17-1.18.11-.47.31-.6.36-.28.6-.31,0-1.12-.55-5.29-.2-.84.89-1.57,5.83-5.08,2.62-.94-1-.86-.22-.62-.13-1.41-.09-4.25-.2-.67-.55-.08-.32-.12-.14-.09-.11-.28.09-.92-.19-.26-.22,0-1,.05-.53-.1-.38-.25-.64-.69-.19-.16,0-.76-.1-.72-.76-1.24-1.42-1.32-.33-.38.3-.29.1-.17,0-.25h-.06l0-.06.45-.2L105,216l1-1.09.39-.21,1.13-.28.21-.15,0,0-.13,0,0-.15.19-.13.19-.08.21-.42.15-.5.23-.22.33-.08.14-.1.21-.32,0-.22-.08-.28,0-.27,1.82-.18.58-.23.89-1.12.26-.21.26-.33v-.25l0-.44v-.18h-.23l.22-.68.32-.49.94-1,1.81-1.13h1l1.72.46h.55l.38-.17.28-.52-.19-.13.32-.31.06-.36-.08-.39,0-.35.11-.76.1-.52.08-.29,0-.32-.25-.25-.06,0,0-.08.15-.32-.18-.44-.7-1-.76-.83,0-1.15.36-.69.83-.6,5.91-.76,1.39.6.36-.07.3-.5.19-.74.16-.85.19-.82.56-1.27.67-.71.77-.34,7-1.53.9-.42,0-.58-.08-.12-.47-.08.13,0,.21-.17.33-.53.46-.92.12-.31,0-.08-.07-.2,0-.08.49-.4,3.93-1.8,2.46-.3,1.19-.67.74-1.7.53-.07,1,.33,1,.55,1,.26,3.56-.18h0l.21-.51,1.18-1.45.19-.46-.47-.71-1.09-.85-.44-.74.91-.67,3.51-1.07.91.59.5.19.23-.33,0-.77ZM87.73,195.84l0,.08.13,0,.13,0,.11.05.07,0,.09,0,.06,0,0-.19,0-.11-.07-.26-.09-.07-.09,0-.24.09-.09.11Zm.47-6-.19,0-.17,0,0,.16,0,.08.14.08.17-.16Z" transform="translate(-3.89 -2.52)"/>

<path id="445230" title="Keski-Pohjanmaan SHP" class="cls-1" d="M64.88,226.51l.08-.15-.07-.16H64.8l0,.11,0,.11Zm-.24,1.65,0,.14,0,.09.11.08.14.13,0,0-.16-.29Zm0-.89.2-.19.07.09.07,0,0-.22,0-.27-.07-.12h-.07l-.06.05,0,.09-.06.06-.16,0-.13.25-.08,0-.07,0,0,.15.1.13Zm.91.07-.1-.26-.08,0v.17h.07Zm0-1.37,0-.11,0,.16.06.07Zm-1.67,1.08-.07-.22-.14,0,0,.11.18.12ZM65,225.68v-.15l-.09-.1,0,.18,0,.08Zm.11,1.62.08.25.14.06.08-.1-.12-.17-.09-.15,0-.09-.1-.3,0,.23,0,.16ZM63,223v-.14l0,0-.06.06,0,.16H63Zm-7.73,16-.08-.13-.11.1-.07.11.13.08.12,0Zm29.56,11.7-3.42-4-2-1.81-1-1.43-1.71-3.6-.59-.8-.76-.54-1.25-.6-.43-.52,0-.3-.2-.83,0-.27-.44-.34-.72-.78-.26-.63-.38-1.55-.11-.81-.85-1-2.27-1.11-2.59-1.94,0,.05-.37.38-.28.41-.07.45-.16.19-.34.58-.11.13-.43-.18-.17.05-.11.36.23.4.36.79.2.78-.22.35-1-.14-.47-.33-.14.07-.14.12-.15,0-.14-.1-.16-.25-.1-.09-.51-.27h-.28l-.22.27-.17,1.51,0,.2.05.33.09.29,0,.33-.12.44v.31l.21.28.45.46-.31.45-.32.35-.32.06-.36-.4-.3.56-.46.18-1.14-.06-.45.12-.18.11-.19.26v.22l.14.15,0,.05-.16.16-.15.2-.16.1-.69-.26-.18.15-.22.39-.84.86.06.31v.18l-.06.44.13.15.16.06.17-.05.21-.14,2.38,2.11.71.13.36-.3.34-.43.42-.39.59-.14.52.16.46.25L62,242l.39-.82.4,0,1.29.87,1.84,1.74.27.67-.22.17-1.56.35-1,.58-.42-.17-.14-.42-.12-.51-.06,0-.18.09-.11.09v.14l0,.09.11.41,0,.1,0,.1-.07,0-.2.16-.06,0,0,.1,0,.08,0,.1v.13l0,.11-.06.08-.26.15.27.13.45.14h.78l.32.23,0,.24.15.94.3.3.28.14.33.37.18.66.34,2.91.17.56.35.69v.11l0,0-.06,0-.06,0,.3.78.35.7.39.61.44.51.5.39.55.26,2.54.61,1,.82,1.33,1.52.34.55-.32.26-.2.22-.17.27h.61l2.11,1.07,2.44-1.3.84.06L81,262l0-.18,0-.65.09-.6.2-.9.1-.76,0-.42,0-.6.13-.14.37-.25.1,0-.23-1.18v-1.33l.41-.93,1.24-1.23,2-1.32ZM58.31,235.51l.14.18h.19l.08-.23-.09-.11-.08,0,0-.14,0-.06,0-.1-.09-.14-.06.06h-.09l0,.15,0,.33Zm5-4.57.1.18,0-.07-.08-.51-.11-.11,0,0v.15ZM60,235.22l-.1-.05-.13,0,0,.06-.07.23.23.16Zm3-4.63.12.3,0,0h.11l0-.13-.07-.06,0-.14,0,0,0,0,0,.06Zm-1.49-.1-.08-.18-.06.14.09,0Z" transform="translate(-3.89 -2.52)"/>

<path id="445079" title="Vaasan SHP" class="cls-1" d="M46.09,246.76l.22.07v.26l.12,0,.11-.13,0-.2,0-.15-.22-.42-.22-.23L46,246l0,.22v.24l0,.17ZM41.81,256l-.14.1.06.19.14.28.09.31-.08.22-.11.06-.1.08,0,.16.17.14.07.14-.06.13.09.15.75.37.12,0v-.09l.06-.05.13,0,.09-.22-.07-.35-.29-.17-.36-.1v-.06L43,257l.45.5h.32l.2-.22.18-.43.15-.3,0-.15-.11-.22,0-.39,0-.19-.07-.25-.07-.06-.07.07-.09.19-.07.25,0,.24-.08.17-.1.1-.08,0-.06-.14-.12-.1-.13,0-.07.08,0,.16-.07,0-.16-.15-.11-.22-.12-.12-.13,0-.19-.08-.26.19Zm5.13-8.13.16.39,0,.26.1.26.08-.06,0-.2,0-.19,0-.15-.07-.12,0-.12.05-.08h.07l0,0v-.07L47,247.4l-.09.1v.15Zm2.11-6.47,0-.12V241l0,0-.17-.29,0,.24.08.16v.12l-.09.12,0,.25,0,.14.08.09Zm.49.33.18,0,.08-.31.1-.22.31.11,0-.08-.13-.2-.23-.13-.29,0-.16.11,0,.07-.07.15v.29Zm-11.9,9.94.07.08,0,.14,0,.14v.07l-.08,0-.06.07.07.07.42,0,0-.09v-.36l0-.1-.12-.18-.13-.14,0-.07,0-.06h-.11l-.07.07,0,.14,0,.1v.06Zm2.38,4,.13-.05.27-.26.19-.24.07-.19.16-.31.21-.08.48.27.25-.07.13-.23-.07-.22,0-.11.14,0,.11-.09v-.1l-.1,0-.15,0-.14-.06-.07-.06-.07,0-.21,0-.23.14-.23-.07-.27,0-.14.22-.05.15-.08.15-.09.12-.09.17-.07.2L40,255l-.07.19,0,.11,0,.07,0,.14Zm.84,1.77h.23l.25-.16.17-.41,0-.24-.4-.66H41l-.06,0,0-.09h-.09l-.07,0,.06.15.21.23.06.16-.12,0-.29-.2-.2.1-.16.38,0,.39,0,.22.09.1.09,0,.06-.08,0-.15,0-.14.1-.07.05.09v.24Zm11.06-19.8-.14,0v.25l0,.13.11.1.12,0,.08,0V238l0-.21,0-.16Zm-2.31,2.9.07-.07v-.34l0,0,.06,0L50,240v-.11l-.08-.09h-.11l-.31-.23-.05.1-.07,0,0,.06.13.49Zm2.5-4.13,0-.09v-.22l-.06-.1h-.2l-.21.12v.1Zm.7,1.67.21,0-.13-.23-.14,0ZM36.1,256l.12.22.24.28.16.66.06.13.54.39v-.15l.13-.17.17-.09,0-.16-.08-.14-.11,0h-.05v-.11l-.05-.13-.43-.54-.06,0-.25.07-.06-.13-.05-.21-.25-.23h0v.09Zm16.65-19.68,0-.17-.09-.15-.19,0-.06.2.14.12Zm-2.68,3.29,0,.15h.11l.09-.08,0-.08v-.19l-.06-.29-.12-.13-.09.07v.15l0,.2Zm2.54,2.8-.2.15,0,.12.09.17.15.09h.08l0-.06.15-.14v-.18l-.12-.16Zm-1.83-.83.07.14.16.49.24.32.3.21.25-.08.12-.14.17,0,.06-.2,0-.25.07-.1.16.15.13.07.11-.3,0-.21.05-.1,0-.23,0-.18v-.09l.07,0,0-.11-.08-.1h-.23l-.05,0-.06.08-.07-.06-.09-.2-.12-.22-.26,0-.39.2-.26.22-.12.19-.13.12-.31.21,0,.16Zm-20.55,15,.2-.13.13.07.05.53.59-.92.23-.58V255l-.41-.48-.52.27-.5.49-.39.19-.17,0-.07.05-.07.13.71.9Zm-3.41-4,.05,0h0l.09.19.18,0,.06-.09v-.19h.11v-.11l-.14,0-.09-.1h-.12l-.09,0-.05.1v.12ZM23,262.53l-.08.22,0,.23.06.2.11-.26.07.18.11-.2-.08-.46Zm.64,4.62-.07-.11-.09.09,0,.16.09-.05-.05.14v.18l.06.06.07,0,0-.12.06-.06.05-.09-.05-.09Zm12-13.34h.05l0,0-.07.15.08,0h.18l.08-.15.15-.1,0-.1,0-.07-.08-.16h-.15l-.28.09-.15-.08v.24l.14,0ZM25.17,267.6l.12.2.07,0v-.14l-.07-.07Zm1.7,8.33H27l.06-.11.11-.13.11-.29v-.19l-.09-.27-.33-.28-.13.07,0,.22v.52l.05.3Zm35.64-31.32.18-.09.06,0,.12.51.14.42.42.17,1-.58,1.56-.35.22-.17-.27-.67-1.84-1.74-1.29-.87-.4,0L62,242l-.31-.06-.46-.25-.52-.16-.59.14-.42.39-.34.43-.36.3-.71-.13-2.38-2.11-.21.14-.17.05-.16-.06-.13-.15h0l.17.46,0,.34-.16.08-.25-.32-.27-.75-.17-.24-.31,0-.29.23-.05.39L54,241l.27.16.05.11v.24l0,.28,0,.17-.17.14-.21,0-.38-.22.11.15.29.53h-1l.77.46.24.23-.22.34-.46.27-.22.31-.07.19,0,.16V245l-.06.27-.13.06-.15,0-.12.11-.17.24-.25.19-.27.11-.22,0-.09-.16-.31-.74-.15-.26.06-.45L51,244l-.17-.34-.23-.29-.14-.08-.17,0-.13.18-.06.33L50,244l-.14-.14-.21-.4-.28-.16-.08,0,0,.3,0,.66-.12.58L49,245l-.62-.16,0,.13,0,.1,0,.23-.14.11-.12.16L48,246l.6,1.17.11.41-.62-.39-.09,0-.06.41-.14.22-.17.16-.13.24-.26,1.21,0,0-.06.36-.11.3,0,.29.11.3V251l-.18.16-.24.37-.19.15,0-.81-.24-.28-.37-.07-.32-.19,0-.3.09-.37v-.32l-.27-.14-.4-.08-.16.12-.15.41.13.87.56.89,1.23,1.4-.51-.34-.47-.07-.44-.18-.45-.65-.41-.46-.49,0-.33.41.07.9.15.35.18.2.22.08.25,0,.08.16.73,1.11.42.43.2.34.15.5.1.24.14.18-.32.51-.32.72-.33.26-.34-.84h-.1l-.17.53-.32.6-.62.9,0-.06-.09-.09-.12-.08h-.08v.37l-.08.1-.23,0-.29-.2-.18-.05-.2.11-.39.34h-.22l-.16-.21-.12-.29-.15-.15-.27.2-.13.25,0,.25,0,.28-.08.32-.15.31-.15.17-.42.21.24.65.18.71-1.16-1.06-.36-.08.13-.33,0-.28-.13-1.28,0-.31.15-.5-.36,0-.72.51-.34.14-.59-.07-.21.07-.61.45v.2l.23.14.46.15.22.16-.32.2-.41-.08-.39-.26-.3-.31-.3.72L35,259.8l-.85-.93-.2.05-.3.18-.28.26-.12.28.06.54.18.24.57.23v.22l-.44,0-.17.12-.1.36.18.07,0,.24,0,.34.06.35.17.23.2.06.21-.06.18-.12-.28.48.09.44.29.37,1,.93.63.92-.46.29-.46-.19-.45-.36-.44-.19-.62-.75-.42-.26-.18.45,0,.49h-.08l-.12-.16h-.16l-.18.22-.05.1,0,.11v.95l.06.59.24,1.15-.52.24-.08.07,0,.23-.16.68-.14.42-.06.43-.07.23-.12.19-.27.29-.11.19-.31.13-1-.43-.35,0-.25.36-.06.41v.47l-.09.53-.09.23-.26.47-.05.07-.08.27-.18-.07-.3-.31-.32.11-.23.31-.08.46.13.56.09.19.26.34.12.08.1,0,.07.05v.35l-.17.5-.35.44-.39.3-.3.08.06.61-.22,1.26,0,.77.27-.54.16-.21.17-.12.23.44,1.06.27.23.6-.31-.09-.31.3-.3.41-.29.28.32.59.09.26-.25.22-.2.34-.13.45,0,.55.05.59.12.17.19-.1.26-.22-.08.56-.27,1,0,.41.21-.32.28-.24.28-.07.24.19-.11.14-.08.15-.12.38.08,0,.15.12.08,0-.11.55-.07.65.06.49.32.07-.2-.45,0-.34,1-1.62.1.45-.18.36-.07.42,0,.41.12.31.21.13.8-.33-.09.48v1.47l-.06.54-.18.92-.06.51.25-.3.16-.43.18-.35.32,0-.31,1.1.41.45.13.3-.08.44-.19.25-.46.34-.21.38.1.35-.05.45-.25.92-.23-.67-.11.28L30.11,296l-.12.78-.58,2.05.64.17.22.26-.26.62.19.08.32.29.07,0,.3-.44.41-.3.31-.49.27-.55.31-.43.74-.4.79-.09,1.73.15-.07-.17,0-.17-.06-.14,0-.06,0-.45.06-1.84.18-1,.67-.16,0-.38L36.1,293l-.19-.31,0-.43.22-.36.42-.22.63-.19.07-.35-.13-.26-.29-.35-.39-.18-.24-.05-.21-.39,0-.36v-.64l-.08-.5-.11-.27,0-.32.31-.1-.05-.42-.19-.26-.53-.18-1.15.32v-.05l0-.41-.06-.07-.18,0-.09,0-.07-.15.11-.33.1-.19.09-.5,0-.56,0-.26.1-.6.47-1.32.28-1,.1-.49,0-.51h-.21l-.06-.19-.06-.6,0-.51.73-.52.82-.77,1.09-1.35.15-.65-.17-.21-.31-.5-.13-.31-.16-.8v-.46l.09-1.1.19-.58.21-.47.1-.34.36-.16,1.2,1.39.62.46,1.11.54,2.77.66.53-.09.49-.32.6-.61,1.29-1.83.26-.25.15-.58v-.83l.25-.93,0-.3.09-.55,1-2.32.23-.38.29-.26.31-.1-.15-.19-.06-.16.15-.3.5-.24.17,0,.32.1.22-.18.2-.78v-.36l-.09-.17.1-.27.22-.11.18-.13,0-.23v-.89l-.18-.56-.94.1-.17.06h-.11l0-.14.19-.76,0-.13-.17,0-.15.06v-.08l.14-.3.21-.34v-.25h-.08l-.33-.15,0-.45.14-.33.47-.43.77-.29.18-.14-.06-.09-.24-.51.14-.16,1.28-.79-.21-.37.45-.06,1.46.11.93.29.4.21.29-.15v-.49l.2-.37.35,0,1.56.34.57-.22.62-.83.93-2,.53-.73.77-.44.65-.06.82.11.83.26.63.44.22.34.44.92.28.42.58.59.69.52.06,0,.06,0,0,0v-.11l-.35-.69-.17-.56L65,249.67l-.18-.66-.33-.37-.28-.14-.3-.3-.15-.94,0-.24-.32-.23h-.78l-.45-.14-.27-.13.26-.15.06-.08,0-.11v-.13l0-.1,0-.08,0-.1.06,0,.2-.16.07,0,0-.1,0-.1-.11-.41,0-.09v-.14ZM27.12,280.06l-.11,0-.26.35,0,0,0,.06.11-.06h0l-.18.26v.36l0,.15.12.07.05.09.31.17,0-.06v-.13l0-.08,0-.18.11-.5v-.3l-.08-.17ZM20.9,258.65l.09-.06.15-.06.05-.19-.23.11Zm8.67,8.3.05-.14,0-.16-.07-.12-.08,0-.07-.08,0-.17-.05-.14h-.06l-.06.08-.06-.06-.11-.3v-.11l0,0-.11-.09-.06,0,0,.07-.05.38,0,.28.08.21.39.06.12.24.14.16Zm5.74-9.79v.59l.18.24.29.14h.1l0-.4v-.21l0-.19v-.26l0-.24.23-.14v-.24l-.12-.3L36,256l-.11-.06,0,0,0,.12-.18-.09,0,.06-.05.12-.08.1-.1,0v0l.12.06,0,.06v.06l0,.06-.11.08,0,.08.07.06-.1.19ZM27.55,272l0,0,.25-.11h.06l0,.06L28,272l.9-.18.24-.32,0-.36,0-.13-.28-.16-.16,0-.27-.2-.05,0v.2l0,.07h0l-.09-.06h-.14L28,271l-.06.21,0,.17.06,0v0l-.37,0-.25.33,0,.13Zm-.43-14.58.22,1,.09.31.16.28.42.55.19.16V260h-.31l.2.53h.21l.21-.21.19-.1.27.27.18.44.17.37.19.25.59,0,.26-.14.25-.28-.3-.18-.1,0v-.22l1.06-.92h.26l-.25.4.2.11.4-.07.35-.2-.13-.33-.07-.39v-.42l.1-.44-.38-.45h-.6l-.59.28-.36.41v.17l.06.18,0,.19,0,.24-.12.14L30,259.5l-.11-.13-.11-.08-.81-.06-.22-.14.06-.14h0l0,0-.05-.26.3-.8.18-.25.24-.11v-.2h-.65l-.59.23-.58.06-.61-.52Zm2.33,13.16v-.34l-.05-.28-.4-.77,0-.15-.35-.2-.13.1,0,.28.07.23L29,270l0,.18,0,.2.14.14.18.11Zm-2.28-1.63.1.26,0,0,.09-.06-.07-.29Zm1-1.3,0-.07-.09-.08-.08,0v.14l.16.31.32.24.21-.14.13-.12.25.25.12,0,.08-.14v-.32l-.08-.45-.13-.36-.17-.26-.16-.17-.37-.16-.07-.08-.05-.11h-.09l-.13.11-.09.19,0,.26L28,267l.18.15.1.14-.07.26Z" transform="translate(-3.89 -2.52)"/>

<polygon id="445225" title="Etelä-Pohjanmaan SHP" class="cls-2" points="61.81 251.49 62.1 252.27 62.45 252.97 62.84 253.58 63.28 254.09 63.78 254.49 64.33 254.74 66.87 255.35 67.88 256.17 69.21 257.69 69.55 258.25 69.23 258.5 69.03 258.72 68.86 258.99 69.47 258.98 71.58 260.05 71.33 260.81 71.05 261.43 70.67 261.81 70.16 261.97 70.34 262.8 70.46 262.88 70.55 262.81 70.61 262.79 70.66 263.06 70.66 263.35 70.67 263.74 70.73 264.09 70.84 264.54 71.03 264.87 71.24 265.05 71.36 265.5 71.34 266.06 71.6 266.59 71.92 266.61 72.42 266.81 72.77 267.3 72.88 267.71 72.74 268.2 71.83 268.32 71.62 268.4 71.62 268.99 72.53 270.53 73.67 273.21 74.14 274.02 74.46 274.39 74.65 274.88 73.9 275.69 73.78 275.92 73.83 276.23 74.28 276.25 74.7 276.19 74.82 276.27 74.81 276.45 74.75 276.55 74.42 276.52 74.41 276.63 74.45 276.74 74.47 276.85 74.54 277.19 74.56 277.31 74.54 277.43 74.22 277.52 74.15 277.59 74.15 277.65 74.15 277.86 74.18 277.98 74.23 278 74.23 278.12 74.19 278.11 74.04 278.07 74.01 278.07 74 278.24 74.04 278.39 74.04 278.49 74 278.6 73.99 278.93 73.94 279.37 73.76 279.56 73.77 279.69 73.8 279.89 73.64 280.07 73.44 280.1 73.26 280.16 72.94 280.39 72.64 280.7 72.46 280.65 72.4 280.46 72.26 280.23 72.06 280.16 71.93 280.14 71.72 280.02 71.07 280.29 71.08 280.64 71.17 281.01 71.04 281.33 70.71 281.4 69.49 280.96 69.16 281.01 68.73 281.33 68.18 281.9 66.97 283.5 66.53 284.35 65.49 283.51 65.09 282.98 64.82 281.95 64.84 281.65 64.9 281.33 64.91 280.99 64.75 280.66 64.53 280.58 64.33 280.78 64.11 281.08 63.99 281.22 63.87 281.2 63.91 280.45 63.79 280.4 63.67 280.48 63.54 280.61 63.52 280.8 63.55 280.99 63.31 281.21 63.06 281.31 62.62 281.6 61.79 282.35 61.19 282.66 59.3 282.79 58.95 282.92 58.99 283.08 59.04 283.42 59.09 284 58.94 284.05 58.77 283.94 57.7 283.85 57.41 283.62 56.95 282.87 56.76 282.65 56.16 282.59 55.75 282.99 55.1 284.43 53.96 285.79 52.4 286.69 50.69 287.18 49.12 287.29 47.15 286.88 45.89 286.25 45.42 286.32 45.19 287.31 45 287.93 44.81 288.39 44.25 289.19 42.7 290.81 42.43 291.22 41.76 291.94 40.15 292.64 39.38 293.22 37.71 295.51 37.03 296.06 35.78 296.3 31.56 295.2 31.5 295.03 31.46 294.86 31.4 294.72 31.35 294.66 31.4 294.21 31.47 292.37 31.65 291.36 32.31 291.2 32.35 290.82 32.21 290.43 32.02 290.12 31.98 289.69 32.21 289.33 32.62 289.11 33.25 288.93 33.32 288.57 33.2 288.31 32.9 287.96 32.52 287.78 32.27 287.73 32.06 287.34 32.09 286.98 32.09 286.34 32 285.84 31.9 285.57 31.86 285.26 32.17 285.15 32.12 284.73 31.93 284.47 31.4 284.29 30.25 284.62 30.25 284.56 30.27 284.15 30.21 284.09 30.04 284.06 29.94 284.02 29.88 283.87 29.98 283.55 30.08 283.35 30.17 282.85 30.15 282.29 30.11 282.03 30.2 281.43 30.68 280.11 30.95 279.1 31.05 278.61 31.1 278.1 30.88 278.09 30.82 277.9 30.77 277.3 30.74 276.79 31.47 276.27 32.29 275.5 33.39 274.15 33.53 273.5 33.36 273.29 33.05 272.79 32.93 272.48 32.77 271.68 32.75 271.22 32.85 270.13 33.03 269.54 33.24 269.08 33.35 268.73 33.7 268.57 34.9 269.96 35.52 270.43 36.64 270.97 39.41 271.62 39.93 271.54 40.42 271.22 41.02 270.6 42.31 268.77 42.57 268.52 42.72 267.94 42.71 267.11 42.96 266.18 42.99 265.88 43.08 265.33 44.1 263.01 44.34 262.63 44.62 262.37 44.94 262.27 44.78 262.08 44.72 261.92 44.87 261.62 45.38 261.38 45.54 261.36 45.86 261.46 46.08 261.29 46.28 260.5 46.29 260.15 46.2 259.97 46.31 259.71 46.53 259.59 46.7 259.46 46.73 259.24 46.75 258.34 46.56 257.78 45.62 257.88 45.45 257.94 45.34 257.95 45.39 257.82 45.58 257.06 45.55 256.92 45.38 256.95 45.23 257.01 45.24 256.92 45.37 256.62 45.58 256.28 45.58 256.03 45.49 256.02 45.16 255.87 45.14 255.43 45.29 255.1 45.75 254.66 46.53 254.37 46.7 254.23 46.65 254.14 46.4 253.63 46.54 253.47 47.83 252.68 47.61 252.31 48.06 252.25 49.53 252.36 50.46 252.65 50.85 252.86 51.15 252.71 51.13 252.23 51.33 251.85 51.68 251.81 53.24 252.15 53.81 251.93 54.43 251.1 55.37 249.12 55.89 248.39 56.67 247.95 57.31 247.9 58.14 248 58.96 248.26 59.59 248.7 59.81 249.04 60.25 249.96 60.54 250.38 61.12 250.97 61.81 251.49"/>

<polygon id="445014" title="Päijät-Hämeen SHP" class="cls-2" points="94.01 303.38 94.25 303.31 94.41 303.02 94.47 302.76 94.6 302.61 95.18 303.14 95.39 303.4 95.51 303.69 95.7 304.36 95.84 304.57 96.15 304.64 96.48 304.36 96.67 304.61 96.74 304.79 96.85 304.91 96.91 305.05 96.88 305.2 96.76 305.62 96.7 305.92 96.62 306.14 96.55 306.2 96.55 306.28 96.7 306.56 96.85 306.71 97.46 306.98 97.86 307.5 98 307.49 98.13 307.34 99.43 306.77 99.97 306.7 100.18 306.76 100.3 307.12 100.24 307.31 100.23 307.56 100.3 307.8 100.41 308.08 100.44 308.41 100.42 308.91 100.42 309.06 100.37 309.15 99.86 309.03 99.84 309.17 99.9 309.35 99.97 309.69 100 310.1 100.01 310.4 99.99 310.64 99.95 310.64 99.79 310.75 99.62 310.99 99.54 311.34 99.6 311.46 99.79 311.77 99.84 311.89 99.89 312.07 99.8 312.37 99.54 313.08 99.49 313.29 99.62 313.72 99.88 314.06 100.34 314.41 100.4 314.58 100.32 314.69 100.2 314.93 100.03 315.39 100.19 315.56 100.4 315.65 101.19 316.49 101.65 316.82 102.77 317.2 103.05 317.56 103.3 318.37 102.56 318.6 102.23 318.81 102.09 318.98 101.87 320.04 101.53 320.63 100.14 322 98.62 322.67 98.16 322.59 97.62 322.11 96.97 322.52 96.6 323.04 96.47 323.45 96.56 323.98 96.71 324.05 96.94 324.22 97.13 324.43 97.31 324.69 97.4 324.97 97.45 325.31 97.54 325.62 97.64 325.75 97.72 325.97 97.45 326.92 97.35 327.16 97.11 327.28 96.53 327.17 96.39 327.21 96.34 328.09 96.84 328.58 97.85 328.85 98.05 329.15 97.94 329.39 97.7 329.79 97.54 330.2 97.52 330.48 97.46 330.73 97.35 330.76 97.13 330.91 96.97 331.19 96.93 331.63 97.08 331.86 97.99 332 98.36 332.31 98.61 332.79 98.77 333.41 98.88 334.13 98.92 334.35 98.93 334.56 98.96 334.72 99.02 334.79 98.87 335.33 98.58 335.68 98.26 335.88 97.56 335.96 96.2 335.62 95.36 335.63 94.94 335.53 94.72 335.34 94.58 335.09 94.4 334.88 94.06 334.77 89.97 336.15 89.4 336.12 88.68 335.67 88.65 334.85 88.48 334.05 88.23 333.4 87.95 333.02 87.48 333.01 86.49 333.88 85.83 334.07 85.46 333.92 85.08 333.57 84.31 332.59 84.14 332.3 84.06 332.02 84.02 331.96 83.83 331.87 82.58 332.18 82.48 332.14 82.39 332.13 82.35 332.14 82.24 331.91 82.21 331.64 82.27 331.34 82.41 331.11 83.06 329.49 83.4 328.85 83.78 328.28 84.22 327.83 84.47 327.67 84.72 327.44 84.73 327.27 84.66 327.04 84.56 326.92 84.31 326.66 84.1 326.5 84.05 326.4 84.24 326.32 84.37 326.29 84.46 326.3 84.68 325.86 85.19 324.42 85.21 323.59 84.88 323.26 84.52 323.05 84.52 322.82 84.51 322.67 84.48 322.5 84.55 322.21 84.65 322.04 84.75 321.75 84.8 321.42 84.81 321.21 84.69 320.87 84.26 320.47 84.06 320.06 84 319.74 83.74 319.4 82.09 318.99 81.45 318.98 81.27 318.7 81.22 318.34 81.02 318.13 80.83 318.21 80.53 318.12 80.23 317.95 80.02 317.93 79.81 317.82 79.75 317.22 79.77 316.88 79.51 316.33 79.48 315.68 79.54 314.95 79.55 314.23 79.43 313.84 79.2 313.38 78.99 312.82 78.91 312.47 79.05 312.2 80.36 312.77 80.48 312.91 86.91 311.9 87.25 311.7 87.51 311.3 87.76 310.57 88 309.42 88.37 306.65 88.58 305.89 88.79 305.79 89.55 305.97 89.78 305.86 90.31 305.34 90.76 305.09 91.15 305.03 91.86 305.07 92.13 305.14 92 305.42 92.23 305.43 92.46 305.17 93 304.12 93.42 302.91 93.51 302.53 93.67 302.16 93.8 302.25 93.91 302.5 93.87 302.84 93.8 303.06 93.86 303.34 94.01 303.38"/>

<polygon id="445206" title="Kanta-Hämeen SHP" class="cls-2" points="80.83 318.21 81.02 318.13 81.22 318.34 81.27 318.7 81.45 318.98 82.09 318.99 83.74 319.4 84 319.74 84.06 320.06 84.26 320.47 84.69 320.87 84.81 321.21 84.8 321.42 84.75 321.75 84.65 322.04 84.55 322.21 84.48 322.5 84.51 322.67 84.52 322.82 84.52 323.05 84.88 323.26 85.21 323.59 85.19 324.42 84.68 325.86 84.46 326.3 84.37 326.29 84.24 326.32 84.05 326.4 84.1 326.5 84.31 326.66 84.56 326.92 84.66 327.04 84.73 327.27 84.72 327.44 84.47 327.67 84.22 327.83 83.78 328.28 83.4 328.85 83.06 329.49 82.41 331.11 82.27 331.34 82.21 331.64 82.24 331.91 82.35 332.14 82.39 332.13 82.48 332.14 82.58 332.18 82.68 332.63 82.85 332.91 83.18 333.23 83.28 333.46 83.27 333.63 83.02 333.79 82.77 333.87 82.39 334.09 82.09 334.48 81.94 334.78 81.85 335.17 81.91 335.3 82.44 334.86 82.79 334.77 83.52 334.97 83.66 335.09 82.5 335.65 82.34 335.85 82.51 336.66 82.56 336.81 82.38 336.89 81.38 336.45 80.89 336.4 80.43 336.5 79.66 336.85 77.3 337.17 75.26 336.99 74.96 337.15 74.7 337.71 74.6 338.28 74.63 339.12 74.58 339.46 73.97 340.05 73.06 340.22 72.34 339.9 72.21 339.49 72.09 338.92 71.86 338.83 71.25 338.75 70.79 338.98 70.71 339.35 70.72 339.76 70.42 339.84 69.95 338.89 69.7 338.58 69.08 338.21 65.47 337.22 64.71 337.34 62.79 337.23 61.88 336.97 61.12 336.11 59.92 335.86 59.28 335.41 59.05 335 58.53 334.4 58.15 334.44 56.75 334.99 56.04 335.11 55.44 334.95 54.92 334.6 54.1 333.88 53.9 333.39 53.99 333.15 54.22 332.71 54.49 332.37 54.68 332.19 54.63 331.9 53.94 331.75 53.59 331.39 53.54 330.64 53.83 330.05 54.33 329.9 55.2 330.02 55.44 329.96 55.41 329.86 55.31 329.42 55.28 329.32 55.4 329.28 55.55 329.28 55.75 329.08 55.85 328.66 55.86 328.34 55.62 327.99 55.4 327.89 55.04 327.56 54.41 326.73 55.56 326.14 56.53 326.52 57.94 327.65 58.42 327.81 58.28 327.35 58.25 327.26 58.48 327.15 60.13 327.16 61.27 326.59 61.92 326.51 62.15 326.65 62.98 326.93 63.81 328.24 64.06 328.35 64.26 327.96 64.2 327.72 64.04 327.32 63.83 327.01 63.7 326.89 63.66 326.73 64.06 326.46 64.34 326.19 64.44 325.9 64.26 325.66 64.08 325.65 63.35 325.91 63.24 325.86 63.26 325.75 63.33 325.36 63.35 325.25 63.29 325.14 62.8 324.99 62.97 324.64 63.26 324.43 65.24 323.89 66.72 323.03 67.54 322.8 68.3 322.9 68.25 322.57 68.24 322.49 68.99 322.24 69.6 321.9 70.39 321.11 70.57 320.77 70.47 320.71 70.28 320.5 70.15 320.14 70.18 319.66 70.35 319.49 71.3 319.46 71.84 319.29 73.86 317.85 74.35 317.69 74.85 317.72 75.9 318.21 76.37 318.35 76.76 318.06 76.91 317.62 77.09 317.24 77.18 317.43 77.5 318.26 77.71 318.52 78.09 318.56 79.22 318.05 79.37 317.79 79.36 317.6 79.41 317.31 79.55 317.07 79.77 316.88 79.75 317.22 79.81 317.82 80.02 317.93 80.23 317.95 80.53 318.12 80.83 318.21"/>

<polygon id="445282" title="Pirkanmaan SHP" class="cls-2" points="63.99 281.22 64.11 281.08 64.33 280.78 64.53 280.58 64.75 280.66 64.91 280.99 64.9 281.33 64.84 281.65 64.82 281.95 65.09 282.98 65.49 283.51 66.53 284.35 66.58 285.4 66.76 286.08 67.03 286.51 67.38 286.83 67.99 287.25 68.66 287.54 69.86 287.81 70.38 288.63 70.55 289.33 71.14 290.33 71.6 290.62 71.78 290.85 72.36 290.97 72.77 290.82 72.59 290.36 72.84 290.16 73.6 289.77 74.05 289.76 74.56 290.15 74.92 290.72 75.2 291.34 75.56 291.86 75.84 292.04 76.09 292.41 76.07 292.73 76.05 293.27 76.07 293.77 76.09 294 76.33 294.29 77.18 294.77 77.63 294.76 79.04 294.09 79.32 294.62 79.44 295.18 80.05 297.37 80.19 298.42 80.09 299.94 79.94 301.18 80.06 302.05 80.37 302.36 80.69 302.5 80.55 302.63 80.47 302.69 80.54 302.98 80.88 303.75 80.91 304.23 80.75 304.45 80.49 304.34 80.39 304.19 80.16 304.12 79.95 304.36 79.83 304.92 79.91 305.34 80.12 305.75 80.47 306.23 80.5 306.55 80.43 306.72 80.36 306.83 80.35 306.95 80.35 307.14 80.03 307.29 79.06 306.8 78.46 306.67 77.99 307.16 77.88 307.85 78.07 308.39 78.34 308.96 78.45 309.31 78.78 309.17 79.13 308.83 79.59 308.93 79.68 309.5 79.45 309.86 79.49 310.02 79.81 310.19 80.03 310.87 80.12 311.81 80.36 312.77 79.05 312.2 78.91 312.47 78.99 312.82 79.2 313.38 79.43 313.84 79.55 314.23 79.54 314.95 79.48 315.68 79.51 316.33 79.77 316.88 79.55 317.07 79.41 317.31 79.36 317.6 79.37 317.79 79.22 318.05 78.09 318.56 77.71 318.52 77.5 318.26 77.18 317.43 77.09 317.24 76.91 317.62 76.76 318.06 76.37 318.35 75.9 318.21 74.85 317.72 74.35 317.69 73.86 317.85 71.84 319.29 71.3 319.46 70.35 319.49 70.18 319.66 70.15 320.14 70.28 320.5 70.47 320.71 70.57 320.77 70.39 321.11 69.6 321.9 68.99 322.24 68.24 322.49 68.25 322.57 68.3 322.9 67.54 322.8 66.72 323.03 65.24 323.89 63.26 324.43 62.97 324.64 62.8 324.99 63.29 325.14 63.35 325.25 63.33 325.36 63.26 325.75 63.24 325.86 63.35 325.91 64.08 325.65 64.26 325.66 64.44 325.9 64.34 326.19 64.06 326.46 63.66 326.73 63.7 326.89 63.83 327.01 64.04 327.32 64.2 327.72 64.26 327.96 64.06 328.35 63.81 328.24 62.98 326.93 62.15 326.65 61.92 326.51 61.27 326.59 60.13 327.16 58.48 327.15 58.25 327.26 58.28 327.35 58.42 327.81 57.94 327.65 56.53 326.52 55.56 326.14 54.41 326.73 54.01 326.48 53.69 326.09 53.31 325.76 52.68 325.69 51.99 325.83 51.61 325.83 51.43 325.75 51.06 325.34 51.02 324.98 51.13 324.75 51.35 324.61 51.5 324.57 51.52 324.32 51.36 324.22 50.64 324.35 50.45 324.33 50.37 324.03 50.47 323.87 50.69 323.61 51.04 323.26 50.97 323.07 50.78 322.94 50.52 322.59 50.35 322.05 50.3 321.69 50.34 321.33 50.76 321.33 50.65 320.73 50.38 320.29 49.55 319.69 47.75 319.29 46.8 319.35 46.51 319.24 46.34 319.02 46.28 318.77 46.24 318.51 46.14 318.26 45.32 317.03 45.21 316.81 45.16 316.54 45.47 316.33 45.45 316.13 45.38 315.94 45.1 314.85 45.19 314.63 45.63 314.71 46.01 314.88 46.2 314.78 46.26 314.61 46.34 314.44 46.47 314.36 46.59 314.32 46.7 314.19 46.65 313.92 46.64 313.87 46.62 313.8 46.72 313.69 47.45 313.5 47.51 313.36 47.44 313.2 47.38 312.89 47.4 312.53 47.45 312.31 47.09 312.04 46.69 311.88 46.21 311.41 45.61 310.39 45.63 309.78 46.53 308.85 46.88 308.07 46.8 307.54 46.86 307.36 47.15 307.33 47.4 306.83 47.33 306.21 47.14 305.98 46.85 306.25 46.75 306.51 46.59 306.61 46.46 306.29 46.4 305.98 46.44 305.68 46.5 305.58 46.74 304.99 46.99 304.23 47.3 303.77 47.62 303.5 48.16 303.18 48.63 302.69 48.88 302.17 48.89 301.38 48.42 300.81 48.09 300.55 47.71 300.42 47.72 300.24 47.81 300.11 48.33 299.99 48.31 299.73 47.89 299.48 47.7 299.16 47.65 298.86 47.43 298.49 47.2 298.42 46.8 298.22 46.53 297.79 46.45 297.38 46.2 296.86 44.88 296.11 44.86 295.74 45.51 294.95 46 294.56 46.55 294.28 47.52 294.24 47.84 294.05 48.15 293.71 48.2 293.58 48.16 293.36 48.17 292.79 48.16 292.39 48.08 291.98 48.03 291.55 48.1 291.08 48.37 290.83 48.95 290.82 49.28 290.74 49.37 290.39 49.14 288.17 49.12 287.29 50.69 287.18 52.4 286.69 53.96 285.79 55.1 284.43 55.75 282.99 56.16 282.59 56.76 282.65 56.95 282.87 57.41 283.62 57.7 283.85 58.77 283.94 58.94 284.05 59.09 284 59.04 283.42 58.99 283.08 58.95 282.92 59.3 282.79 61.19 282.66 61.79 282.35 62.62 281.6 63.06 281.31 63.31 281.21 63.55 280.99 63.52 280.8 63.54 280.61 63.67 280.48 63.79 280.4 63.91 280.45 63.87 281.2 63.99 281.22"/>

<path id="445178" title="Kymenlaakson SHP" class="cls-1" d="M114.73,346.93l-.08.08,0,.09.08.33.22.46.17.11.17,0,.07-.08.07-.69-.15-.09Zm-6.27-1-.12,0-.13.14-.07.19v.22l-.09.17-.2.15-.7.16-.09.23.27.55.18.21h.16l.15-.57.21-.23.93-.29.19-.2,0-.16-.13-.14Zm2.68,2.52-.11-.1-.23-.2-.25.22.28.42.17.18.09.05,0-.12.07,0,0-.13v-.07Zm18-9.05-.22-.06h-.14l-.34-.07,0,0,0,0,0-.07.06-.08-.1-.18-.74-.54-.25-.26-.13-.32-.24-.82-.14-.28-.59-.23-.66.08-.55-.14-.19-.38-.43-.63-2.62,0-.45-.28-.41-.49-.71-1.05-.48-.45-1.84-.77-.51-.33-1-1.14-.18-.36v-.16l.22,0,.22.13.46.13.47-.09.22-.16.05-.3-.16-.1-.14-.23-.09-.26-.17-.25-.21-.1-.49-.11-.12-.06-.06-.16.24-.4-.11-.37-.06-.43.28-.6.5-.41.24-.12.15-.2-.17-.18-.09-.05-.2,0h-.12l0-.24.3-.59.1-.36,0-.53-3.12.32-.85-.61-.23-.41,0-.18,0-.4v-.2l0-.5-.14-.42-.17-.27-.15-.35,0-.33-.18-.37-.51,0-.31.09-.29.18-.17.24-.22.59-.13.23-.42.4-.5.36-.51.13-.22-.06-.13-.29.07-.12.3-.7-.07-.27-.12-.19-.12-.33-.15-.26-.33-.14-1.43.41-.73.23-.33.21-.15.17-.22,1.06-.33.59-1.4,1.37-1.51.67-.46-.08-.54-.48-.66.41-.36.52-.13.41.09.53.15.07.23.17.19.21.17.26.1.28,0,.34.09.31.09.13.09.21-.27,1-.1.24-.24.11-.58-.1-.15,0,0,.88.51.49,1,.26.2.31-.12.24-.24.4-.16.41V333l-.07.26-.1,0-.22.15-.16.28,0,.44.14.22.92.15.37.31.24.48.16.62.12.72.3.09.51-.07.27.08.19.24.27.65.11.16,0,.47v.41l.29.51,1,.59.5.5.35.59.39.47.62.12.15.11h0l.57-1.1.35-.44.65-.26.59.35.47.82.32,1.16-1.27-1-.62-.1-.66.55-.19.31,0,.26,0,.67-.06.2-.4.84-.29.29-.38.23-.24.32.11.58.29.44.37.4.39.2.31-.12,0-.31.25-.14.33,0,.28.07.22.25.27.41.27.31.21-.06.13-.17.32-.22.1-.12,0-.2,0-.51,0-.21.21-.26.29-.19.31-.09.26,0-.12.44-.08.21-.11.18h.43l1.35-.5.14.23.45.52.11.07,0-.34-.15-.32-.35-.48.67.05.31-.13.2-.64.13-.15.1-.17,0-.28v-.2l.13-.17L115,343l.14,0,.12.11.24.43.14.09.11-.1.14-.44.11-.09.16.1.21.43.18.1.29-.09.09.11,0,.39.33-.34,0-.41-.19-.45-.09-.46.2-.37.34-.16.19.17-.23.59,1.07.7.35.32-.76-.11-.38.09,0,.43.24.12,1.13.06.65.24,1.29,1,.73.18-.09-.22-.11-.16-.14-.13-.16-.1.08-.11.13-.23.09-.09-.1-.29-.06-.07-.14-.05.53-.24,1.24,1.1.54.18-.15-.38-.12-.24,0-.24.11-.36.24-.29.29,0,.59.11-.22.24-.46.22-.13.34,1,.21.19-.1.51-.52h-.1l-.2-.17.08,0,.22-.17-.18-.35-.11-.41,0-.33.25-.13,0-.1-.09-.24-.06-.09.34-.18.22.19.2.35.25.27,1.25-1.53,1.3-1.36.34-.45Zm-10.35,11.27-.05.13.19.17.12-.26-.09-.06Z" transform="translate(-3.89 -2.52)"/>

<polygon id="445043" title="Etelä-Karjalan SHP" class="cls-2" points="156.79 300.52 154.31 304.33 152.32 306.45 152.02 306.93 151.67 308.01 151.39 308.53 149.27 311.06 148.81 311.43 147.86 311.87 147.53 312.18 147.26 312.66 146.99 313.42 146.74 314.06 144.6 316.38 144.17 317.06 143.99 317.42 143.77 317.85 142.9 319.22 141.83 320.21 139.63 321.6 138.82 322.22 137.78 323.29 136.93 323.78 136.69 324.08 136.23 324.86 135.33 325.89 135.06 326.34 134.81 326.97 134.81 326.97 134.81 326.97 134.81 326.98 134.23 327.88 132.93 328.24 132.26 328.74 130.12 330.99 128.77 333.04 127.36 334.06 125.23 336.88 125.22 336.87 125 336.81 124.87 336.82 124.53 336.76 124.48 336.71 124.5 336.67 124.54 336.6 124.61 336.52 124.5 336.34 123.76 335.8 123.52 335.54 123.38 335.22 123.15 334.4 123.01 334.12 122.42 333.89 121.75 333.97 121.2 333.83 121.02 333.45 120.58 332.82 117.97 332.85 117.51 332.57 117.11 332.09 116.4 331.03 115.91 330.58 114.07 329.82 113.56 329.48 112.55 328.34 112.36 327.98 112.37 327.82 112.59 327.87 112.81 327.99 113.28 328.12 113.74 328.03 113.97 327.87 114.01 327.57 113.86 327.47 113.72 327.24 113.62 326.98 113.45 326.73 113.24 326.63 112.75 326.52 112.64 326.46 112.57 326.31 112.82 325.9 112.7 325.53 112.64 325.1 112.92 324.51 113.42 324.09 113.66 323.98 113.82 323.77 113.64 323.59 113.56 323.54 113.36 323.5 113.23 323.51 113.2 323.27 113.5 322.68 113.61 322.32 113.58 321.79 115.31 321.59 115.58 321.5 115.84 321.19 115.84 321.04 115.85 320.85 115.95 320.72 116.08 320.64 116.19 320.51 116.16 320.45 116.13 320.31 116.12 320.23 115.76 320.24 115.39 320.06 115.23 319.74 115.35 319.5 115.32 319.01 114.53 317.91 114 317.41 113.77 317.07 114.03 316.98 114.21 316.81 113.99 316.64 112.55 316.69 110.09 316.21 109.98 315.73 110.22 315.44 110.71 315.25 111.79 315.37 112.11 315.32 113.42 314.5 114.13 314.37 114.91 314.47 118.4 315.71 127.85 315.31 130.21 313.92 131.02 313.04 131.2 312.7 131.3 312.4 131.36 312.16 131.43 311.98 131.76 311.47 132.08 311.12 132.45 311.04 132.69 311.15 133.11 311.98 133.47 312.24 134.8 312.35 136.23 311.98 137.1 311.47 137.21 311.15 137.18 310.45 137.27 310.23 137.52 310.19 138.34 310.37 140.69 310.35 142.71 309.92 143.53 309.55 143.92 309.18 144.94 307.65 146.78 306.51 147.75 305.68 148.22 304.46 155.49 300.57 156.75 300.51 156.78 300.52 156.79 300.52"/>

<polygon id="445155" title="Etelä-Savon SHP" class="cls-2" points="142.02 283.68 142.26 283.66 142.3 283.53 142.61 282.89 142.99 282.64 143.59 282.9 144.06 283.75 144.53 285.36 144.92 286.41 145.15 286.9 145.7 287.79 146 288.13 146.11 288.91 146.03 289.54 146.13 290.79 146.41 291.92 146.67 292.74 147.19 293.91 147.94 295.03 148.82 295.93 149.25 296.24 149.58 296.68 149.25 297.34 149.07 297.87 149 298.24 149.1 298.79 150.02 299.74 150.12 300 149.83 300.52 150.07 300.76 150.13 301.32 149.54 302.62 148.22 304.46 147.75 305.68 146.78 306.51 144.94 307.65 143.92 309.18 143.53 309.55 142.71 309.92 140.69 310.35 138.34 310.37 137.52 310.19 137.27 310.23 137.18 310.45 137.21 311.15 137.1 311.47 136.23 311.98 134.8 312.35 133.47 312.24 133.11 311.98 132.69 311.15 132.45 311.04 132.08 311.12 131.76 311.47 131.43 311.98 131.36 312.16 131.3 312.4 131.2 312.7 131.02 313.04 130.21 313.92 127.85 315.31 118.4 315.71 114.91 314.47 114.13 314.37 113.42 314.5 112.11 315.32 111.79 315.37 110.71 315.25 110.22 315.44 109.98 315.73 110.09 316.21 112.55 316.69 113.99 316.64 114.21 316.81 114.03 316.98 113.77 317.07 114 317.41 114.53 317.91 115.32 319.01 115.35 319.5 115.23 319.74 115.39 320.06 115.76 320.24 116.12 320.23 116.13 320.31 116.16 320.45 116.19 320.51 116.08 320.64 115.95 320.72 115.85 320.85 115.84 321.04 115.84 321.19 115.58 321.5 115.31 321.59 113.58 321.79 110.46 322.11 109.61 321.5 109.39 321.09 109.34 320.92 109.3 320.52 109.29 320.31 109.24 319.81 109.1 319.39 108.92 319.12 108.77 318.77 108.73 318.44 108.55 318.07 108.05 318.1 107.73 318.19 107.45 318.38 107.28 318.61 107.06 319.2 106.92 319.43 106.5 319.83 106 320.19 105.5 320.33 105.27 320.26 105.14 319.97 105.21 319.85 105.52 319.15 105.45 318.88 105.33 318.7 105.21 318.37 105.06 318.1 104.72 317.96 103.3 318.37 103.05 317.56 102.77 317.2 101.65 316.82 101.19 316.49 100.4 315.65 100.19 315.56 100.03 315.39 100.2 314.93 100.32 314.69 100.4 314.58 100.34 314.41 99.88 314.06 99.62 313.72 99.49 313.29 99.54 313.08 99.8 312.37 99.89 312.07 99.84 311.89 99.79 311.77 99.6 311.46 99.54 311.34 99.62 310.99 99.79 310.75 99.95 310.64 99.99 310.64 100.01 310.4 100 310.1 99.97 309.69 99.9 309.35 99.84 309.17 99.86 309.03 100.37 309.15 100.42 309.06 100.42 308.91 100.44 308.41 100.41 308.08 100.58 308.02 100.93 307.77 100.98 307.56 100.98 307.41 101.02 307.19 101.2 306.7 101.52 306.57 103.02 307.35 103.29 307.12 103.5 305.63 103.5 305.16 103.38 304.73 102.89 303.73 102.69 303.39 101.4 301.95 101.27 301.71 101.2 301.2 101.29 300.05 101.29 299.75 101.16 299.47 100.72 299.46 100.63 299.48 100.8 298.52 100.83 297.74 101.02 297.17 101.4 296.93 101.45 296.14 99.35 292.68 99.31 291.54 100.63 289.63 101.6 288.8 101.96 288.79 102.38 289.16 102.5 289.1 102.71 288.94 102.89 288.71 102.98 288.57 103.02 288.38 102.97 288.35 102.9 288.32 102.83 288.28 103.06 287.93 103.37 287.78 103.56 287.75 103.92 287.84 104.08 287.96 104.49 288.42 104.88 288.68 105.25 288.71 105.38 288.58 105.23 288.42 105.07 288.09 105.07 287.84 105.03 287.4 104.94 287.03 104.88 286.87 104.94 286.51 105.36 286.36 105.58 286.17 105.67 286.02 105.71 285.8 105.67 285.77 105.56 285.73 105.52 285.7 105.62 285.33 105.8 285.1 106.25 284.85 106.95 284.65 107 284.41 105.92 283.41 105.83 283.06 105.92 282.84 105.99 282.63 106.1 282.2 106.19 281.57 107.06 282.17 107.51 282.18 107.79 282.02 108 281.73 107.86 281.66 107.81 281.63 107.94 281.33 108.11 281.1 108.39 280.85 108.68 280.83 109.72 281.49 109.95 281.48 109.86 281.17 109.84 280.69 110.01 280.59 110.22 280.61 110.92 280.89 111.45 280.83 112.25 280.39 112.53 280.45 112.79 280.58 113.08 280.97 113.16 281.15 113.42 281.16 114.19 280.84 114.55 280.8 114.94 280.63 115.51 280.1 115.62 280.04 115.71 279.84 115.59 279.43 115.56 279.34 116.05 279.46 116.13 279.57 116.6 279.84 116.91 280.19 116.95 280.25 117.22 280.33 117.66 280.74 117.91 280.91 118.42 281.52 120.3 283.38 120.64 283.64 120.63 283.75 120.59 283.92 120.59 283.97 121.26 284.15 121.69 284.36 121.39 285.11 121.69 285.78 122.79 287.04 122.93 287 123.45 286.97 123.7 286.83 124.06 287.16 124.39 287.54 124.69 287.64 124.84 287.44 124.9 287.11 124.58 287.09 124.79 286.95 125.7 286.99 126.18 286.82 126.28 286.44 126.5 285.84 128.28 284.66 128.7 284.61 129.24 284.67 129.75 284.54 129.96 284.29 130.02 283.87 129.94 283.83 129.53 283.55 129.42 283.28 129.39 283.05 129.28 282.74 129.09 282.55 128.97 282.48 128.93 282.26 129.02 282.11 129.22 281.93 129.42 281.88 129.53 281.89 129.64 281.82 129.67 281.64 129.63 281.49 129.4 281.3 129.34 281.13 129.48 280.94 130.56 281.35 130.88 281.25 131 280.85 130.91 280.48 130.65 280.03 130.8 279.69 130.96 279.52 131.12 279.08 131.29 277.92 131.27 277.87 131.23 277.84 131.19 277.74 131.25 277.56 131.53 277.83 132.71 278.08 132.84 278.24 133.05 278.14 133.06 277.74 132.23 277.43 132.47 277.24 133.96 277.11 134.25 276.94 134.47 276.65 134.15 276.61 134.2 276.52 134.31 276.4 134.53 276.02 134.74 275.56 134.87 275.11 137.11 275.83 137.37 276.03 138.64 277.31 138.91 277.47 139.25 277.9 139.37 278.16 139.75 278.6 140.37 279.07 140.5 279.25 140.12 279.56 140.26 279.72 141.49 280.3 141.58 280.56 141.49 280.76 141.34 281.23 141.21 281.8 141.16 282.13 141.15 282.53 141.19 282.57 141.28 282.63 141.45 282.67 141.5 282.75 141.42 283.23 141.41 283.31 141.55 283.46 142.02 283.68"/>

<polygon id="445293" title="Pohjois-Karjalan SHP" class="cls-2" points="138.95 236.2 149.58 235.15 149.81 235.29 150.03 235.66 150.75 239.86 150.86 240.11 151.09 240.41 151.2 240.46 151.45 240.43 153.61 239.33 154.39 239.2 154.61 239.36 154.62 239.36 154.36 239.55 154.66 240.42 158.22 244.85 160.25 246.49 161.15 247.84 161.44 248.45 161.84 248.81 166.74 251.66 169.01 254.5 172 256.59 172.38 257 172.7 257.54 172.81 258.21 172.83 258.81 172.93 259.51 173.07 260.17 173.25 260.66 173.63 261.17 174.56 261.91 174.98 262.37 175.93 263.86 176.27 264.2 176.46 264.37 176.83 264.96 177.03 265.77 177.27 266.54 177.77 266.98 176.46 269.55 175.88 270.76 175.43 272.12 174.73 275.17 174.49 275.88 173.84 276.95 173.56 277.69 173.21 279.22 172.97 279.91 172.65 280.28 172.65 280.28 172.64 280.29 171.86 280.78 171.63 281.06 171.47 281.4 171.2 282.1 169.09 284.51 168.89 284.85 168.52 285.92 168.28 286.31 168.02 286.6 166.34 287.87 165.01 289.21 164.45 289.55 164.19 289.77 164 290.05 163.59 291.08 161.73 293.71 159.65 296.1 159.65 296.1 159.65 296.1 156.79 300.52 156.78 300.52 156.75 300.51 155.49 300.57 148.22 304.46 149.54 302.62 150.13 301.32 150.07 300.76 149.83 300.52 150.12 300 150.02 299.74 149.1 298.79 149 298.24 149.07 297.87 149.25 297.34 149.58 296.68 149.25 296.24 148.82 295.93 147.94 295.03 147.19 293.91 146.67 292.74 146.41 291.92 146.13 290.79 146.03 289.54 146.11 288.91 146 288.13 145.7 287.79 145.15 286.9 144.92 286.41 144.53 285.36 144.06 283.75 143.59 282.9 142.99 282.64 142.61 282.89 142.3 283.53 142.26 283.66 142.02 283.68 141.55 283.46 141.41 283.31 141.42 283.23 141.5 282.75 141.45 282.67 141.28 282.63 141.19 282.57 141.15 282.53 141.16 282.13 141.21 281.8 141.34 281.23 141.49 280.76 141.58 280.56 141.49 280.3 140.26 279.72 140.12 279.56 140.5 279.25 140.37 279.07 139.75 278.6 139.37 278.16 139.25 277.9 138.91 277.47 138.64 277.31 137.37 276.03 137.11 275.83 134.87 275.11 135.01 274.57 135.19 274.21 135.29 274.08 135.52 273.86 134.7 272.19 135.09 271.47 135.88 271 136.14 270.6 136.52 269.57 136.9 269.48 137.53 269.89 138.13 270.57 138.79 270.98 139.26 270.77 141.11 269.19 141.21 268.78 140.49 268.38 140.06 267.92 139.72 267.24 139.26 266.91 139.03 266.6 138.93 266.27 139.02 266.02 139.13 266.14 139.37 266.31 139.63 266.33 139.77 266.27 139.83 266.1 139.75 266.04 139.53 265.75 139.46 265.69 139.56 265.39 139.75 265.22 140.57 264.72 140.75 264.52 140.67 263.96 138.09 261.97 135.78 258.57 135.08 257.84 134.64 257.52 134.28 257.13 134.86 256.23 134.9 256.01 134.72 255.89 134.79 255.73 135.57 255.09 135.64 254.9 135.59 254.85 135.48 254.68 135.53 254.47 136.02 253.77 136.2 253.39 136.27 252.98 136.31 252.21 136.34 251.94 136.39 251.62 136.26 251.18 135.62 250.63 135.22 250.18 134.92 249.64 134.72 248.93 134.58 248.17 134.4 247.44 134.26 247.11 134.19 246.5 134.32 246.24 134.62 246.06 134.95 246 135.12 245.94 134.89 245.55 134.51 245.16 134.24 244.41 134.11 243.52 133.84 242.37 134.07 241.89 134.12 241.81 133.95 241.53 133.71 241.35 133.28 241.17 132.09 241.02 131.74 240.75 130.91 239.57 130.46 239.15 131.68 236.77 131.89 236.2 131.99 235.83 132.02 235.34 132.03 235.22 132.82 234.86 133.6 234.81 138.95 236.2"/>

<path id="445197" title="Varsinais-Suomen SHP" class="cls-1" d="M34.69,364.11l-.38.35,0,0,.06,0,0,0,0,0,.44-.28H35l.18-.07.16-.15V364l-.3.1Zm-1.56-16,0,0,0-.24-.05-.12-.09-.06-.18.08v.1l.1.23v.13l0,.08-.06.12,0,.15.07.05.07-.05,0-.13.15-.21Zm-3,11.73.08.19v-.08l.08,0-.05-.11Zm2.49-1.4.08,0,.11-.05v-.22l-.14-.05Zm2.5,2.26-.07-.13-.13-.08h0l-.1-.09-.07.13v0l-.06,0,.11.18H35Zm-3.79-3.56.08-.1-.17-.2-.17.1.05,0,.11,0v.11Zm2.57-13-.15-.22-.16,0-.13.37v.14l.24.08.09.1.15.17.09,0v-.16l0-.09.21-.35.06-.16,0-.13-.1-.18-.15-.12-.08.08v.17l.06.17,0,.14-.08,0Zm-3.52,10.06-.08,0-.05.16,0,.18,0,.11,0,.12.15-.07.14-.24,0-.21Zm2.27,7.75,0,.12.07-.26h-.18Zm-1.21,3.63-.07-.07-.11,0v.15l.08.15.14-.05.08-.18-.06,0Zm-.13-12.19-.24-.43-.69,0-.31.17-.21.39h.28l.16.15.15.19.22.09.46.05.22.12.13.23h.1l.1-.47.22-.18.58,0v-.21h-.8Zm3,.77-.6.33-.49.71.53-.05.24.11.13.35-.58,0-.29,0-.24.19.16.13.15.22.16.16h.14l.15-.11.41-.15.15,0,.4.13.2,0,.2-.15.13-.26,0-.22-.09-.15H35l.35-.29.15-.19.1-.32-.59-.38Zm2.86-2.67-.15.1,0,.16v.12l0,.08.48-.23v-.17l-.14-.08Zm-.75-7.4-.34.74-.14.57.1.29.18-.14.22-.33.16-.32.36-.6.15-.31,0-.41-.33,0Zm-2.11,7.54-.13.47,0,.41.21.13.14,0,.08,0,.14,0,.07-.17,0-.2.17-.24.07-.29-.16-.07h-.22l-.05-.07.14-.11,0-.24h-.26Zm1.56-5.6.08.15.18.05v.09l0,.15,0,.2,0,.16.13.15.16-.17.08-.24-.06-.05,0-.33-.13-.21-.2-.12-.14,0Zm-.07,1.92-.13-.08h-.16l-.14.16.17.12.19.09.36.24.1-.08,0-.12-.14-.1h-.18Zm2.31-.9-.29.13-.25.25-.1.34.13.34.3.29.34.2.46.11.15.09.33.28v.07l0,.29v.07h.1l.08-.08.08-.1,0,0,.29.13.28.06.28,0,.27-.16v-.23h-.14l-.13,0-.24-.15h.15l.36-.21-.13-.33-.21-.1-.48,0,.12-.22-.2-.21-.42-.24-.2-.16.18-.18.21,0,.43.16v-.19l-.27-.63-.13,0-.15-.07-.12-.16,0-.26-.13-.26-.65-.44-.24-.22-.21,0-.14.16-.09.29-.06.39.71.82v.2Zm-2.78-1.72,0,.15.19.06.2-.07.06-.21-.09-.16-.11-.08h-.18l0,0v.09l0,.08Zm-.6,1.71.11.08L35,347l0-.07.06-.13,0-.15v-.14l.06,0,.1,0,.06,0,0-.25,0-.41-.13-.15-.15.07-.1.16,0,.09,0,.09v0l-.07,0-.07,0-.05.12,0,.15,0,.25v.07l0,.11-.05.05Zm2.6.95-.29.16-.1,0-.1-.13h-.13l-.08.19.06.11.27,0,.47-.15.08-.1,0-.11Zm3,2.65-.09.11.06,0h.1l.18-.07.15-.14,0-.15-.18,0ZM38,350.32l-.08,0,.35.41h.09l.1-.06.08-.09,0-.12-.29-.05Zm-1.46-.12H36.4l-.1.11,0,.08,0,.08.14.11.17,0,.1-.13-.07,0Zm-5.21-13.28.09-.21-.09-.16-.09-.1,0-.1-.14-.11-.2,0-.1.12,0,.15.11.12.1.17.13.15Zm-.88-2.28v.09l.18.18.14,0,0-.23-.11-.15Zm.17,10.23h.09l-.26-.83,0-.28-.39-.7-.41-.52H29.3l.13.53.22.32.11.35-.15.64.23.25.5.07Zm-.34-8.46v-.05h0l0-.11,0-.13L30,336l-.1,0,0,.11.07.13.2.15Zm1.27,14.73.05.08.6-.06.26-.13,0-.26,0-.15-.21-.05-.16.05-.05.07-.47.09-.07.1V351Zm-.64-2.43.1,0,.11.07h0l0-.18-.07-.37-.21-.39-.27-.24-.18.06-.07.17-.1.19,0,.21.14.18.29-.07.11.05,0,.06v.21Zm-.11-19.52,0,.16.06-.11ZM32,347.27l.11.07.13,0,.1-.13V347l-.11-.32-.1-.17-.08.08-.2.3v.07l.06,0,.07,0,0,0,0,.18Zm.73-3.72.12.06h.06l0,0,.07,0-.3-.41L32,343l-.24-.5-.62-.06-.27.13-.12.43,0,.53.11.18.16-.11.2-.3.16.74.31.55.37.37.37.19-.17-.3,0-.23.19-.13.24,0-.08-.19,0-.24,0-.28Zm-.9,4.71.05-.17v-.55l-.09-.15-.36-.22H31.3l-.11.16,0,.18.15.34Zm-1.34-13.7.05-.11v-.11l-.09-.15-.11,0-.06.14,0,.12h-.07l-.09-.07,0,.07.09.18.07,0v-.06h0l.17,0Zm-.69,1.7-.12,0-.07.07v.14l.06.1.35-.08-.05-.14Zm.08-1.53-.33.17-.07.08,0,.12.11.08.17,0,.16-.09.1-.09,0-.07L30,334.8Zm-1.46.92-.05,0-.25-.36,0-.09-.07-.13h0l-.05.1,0,.07-.08,0,0,.17.11.27.43.17h.12l0-.11,0-.12Zm.47-1.71,0,.05.07-.06.6.38.19.08.06-.23v-.4l-.12-.06-.11.18-.09,0-.05-.07h-.1l-.13.05,0-.1-.05-.26-.22-.13-.25.08-.05.12.14.13.08.12ZM27,354.86l0,.18.07.15-.05,0v.06h.08l.11-.1,0-.2-.07-.16Zm2.18-8,0-.23v-.13l0-.07-.08.06,0,.14,0,.14,0,.1v0h-.12l0,.12,0,.21.07.17.05,0,0-.1,0-.06h.05l.07.07.09,0v-.17Zm-1,1.76-.13.23,0,.24h.14l.05-.12v-.16l0-.05.09-.06v-.15l-.08,0ZM26.27,333.9l-.18-.08-.11.06.08.14.33.25.07,0v-.09Zm2.8,6.93.13.45.15.23.17.09.3.09.07.18.06.27.11.19.26,0v-.2l-.25-.05-.05-.31.07-.44.12-.43-.15-.16-.09-.19,0-.23V340l-.17-.13-.09.12-.06.23-.08.21-.36.18Zm1.53-3-.21-.12-.17,0-.07.09,0,.11,0,.08.15.06.33-.07Zm-1.88-8.28v-.15l-.05-.09-.09.06-.08,0v.17l0,0Zm-2.56,7.77-.16.18v.19l.07.14.1,0,.07-.12v-.14l.1-.21,0-.11Zm3.17-4.51h.49l.15,0,.33.13.31,0,.11-.28,0-.63.16-.2.24-.1.28-.32-.54-.49-.23-.29-.25-.46-.29,0-.22.12-.39.52.31,0,.27.21.43.6-.09.11-.13.21-.09.07,0,.12,0,.1,0,.1.05.12-.32.2-.72-.33-.38.32.21.16ZM46.55,363.4l-.06-.09-.11,0-.08.14-.12.08v.09l.32.17h.05l.08-.32,0-.08Zm-.23-1.87v-.08l-.1-.09-.11,0-.18.21-.12.23.09.11.27-.21Zm-2-9.55-.35.57-.19.58.34.57.54-.32.41-.76-.08-.71-.29-.23Zm1.83,8.69v-.14l0-.18-.27-.11-.19,0-.05.07-.06.35,0,.18.1.23.07,0,.31-.36Zm1.45.2-.08,0,0,.22,0,.1v.17l.24.22h0v-.17l0-.15-.06-.16V361Zm.44,1.9-.15,0-.12.06-.34,0-.34.19-.09,0h-.09l-.12.13,0,.24.18.1.23-.06.91-.5.11-.15,0-.07Zm-3.42-8.3-.15.09-.07.2,0,.19v.13l.05.25.16-.07.2-.21.06-.18,0-.41v-.07Zm-.84-.59-.07,0-.11.12,0,.11.08.17.09,0,.6-.14.2-.18Zm-.23,8.91-.16,0-.15.18,0,.09.15.05.3-.09v-.15Zm2.11-8-.06-.16-.2-.18v-.12l.36-.14.35-.25.26-.53-.16-.26-.91.35-.13.1-.08.19v.29l-.07.06,0,.17,0,.25v.13l-.06.06.15.09h.37Zm2.06,7.7-.06.13,0,.14,0,.09.42-.28h.14l.1-.06.08-.14.06-.17-.11-.06Zm-2.11,2.21-.12-.21-.09-.25,0,.07,0,.36-.05.12,0,.16.08.06,0-.07.06,0h.13l.07-.08,0-.1Zm1.32-3.4,0-.3v-.26l.08-.36,0-.17,0,0,0,.14h0l.08-.13h.13l.09,0,.06.1.05-.06,0-.15V360l0-.09h-.17l0-.05v-.13l-.08-.12-.12.06-.06.2-.06.09,0-.07h-.09l-.09.15,0,.12,0,.08.05,0-.2.12,0,.07-.13.24,0,.38.09.25.12.15.09,0Zm6.59-4.53.42,0,.24-.11.19-.16h.08l0,.11.07.06.14,0,.16-.12.09-.24,0-.22-.06-.19-.11-.24-.18-.16-.3,0-.38.18-.17.16-.1.11-.14.27-.1.27-.17.18v.1l.24,0Zm.6,1.18.08-.22,0-.27.11-.21-.13-.1-.45,0-.36.15-.12.21.1.11h.2l.13.1v.15l-.41.05-.07.39.13.49.19.16.11-.15.06-.24.14-.41.11-.13.08,0Zm-1.51-.29h-.1l0,.2,0,.29.1.09.07-.19v-.26Zm2.17.05-.15,0-.2.16-.15.24-.06.21v.13l0,.09-.07.06-.11,0,0,.16.07.12h.11l.07.06,0,.08h.06l.08-.24.12-.15.13,0,.1-.08.06-.15.15-.17,0-.09-.16-.3Zm-6,2.45.1-.08.06-.13,0-.19-.15-.13-.39,0-.17.21,0,.29,0,.16.06.14Zm20-19.09-.18-.09-.2-.26v-.38l.23-.47-1.92-.11-.91-.26-.76-.86-1.2-.25-.64-.45-.23-.41-.52-.61L62,337l-1.39.55-.72.11-.59-.15-.52-.35L58,336.4l-.21-.49.1-.24.23-.45.27-.33.19-.18-.06-.29-.68-.16-.35-.36,0-.74.28-.59.51-.15.87.12.23-.06,0-.1-.09-.44,0-.11.11,0h.16l.2-.2.09-.42,0-.32-.24-.35-.22-.1-.36-.33-.63-.84-.41-.25-.31-.38-.39-.33-.62-.08-.69.15H55.5l-.18-.08-.38-.41-.7-.28L53,326.47l-.21,0v.37L53,327l0,.38-.15.41-.12.19.12.84-.39.49-.65.29-.5.11-2.25-.08-.33.13-.2.35.46.57.11.1-.17.13-4.65.58-.46.3-.61.78-.33.1-2.14-.39-.25-.31v-.22l-.16-.36-.39-.44-.09-.25,0-.12,0-.18v-.22l0-.16-.32-.21-.35-.14-.9-.76-.52-.26.18-.37,0-.07-.15-.1-.19,0-.33,0-.19.22v.25l-.16.42-.23.13-.49.09-.47-.09-.37-.24-.07-.23-.05-.37-.08-.35-.18-.15-.23.09-.12.26,0,.35,0,.2-.39.25-1.19.13-.63-.33-.46-1-.17,0v.15l-.31.09-.34-.14-.65-.47h-.32l.05.43.14.26.41.33-.1.08-.21.36.26.23.66,1.43.07.22,0,.2.07.14.18.06.12.11.08.28.06.35.09.31-.18,0-.13-.15-.11-.18-.13-.08-.14.06-.26.3-.16.07.31.54.1.08h.37l.17.05.16.14-.3.34-.38,0-.73-.16-.21.12.27.6-.16.3.05.22.06.17.09.14.1.12.22-.09.19.26.1.43-.1.42h.2l.19.14.32.47-.16,0-.12,0-.23.18.28.27.3.21.32.13.31,0v.18h-.7l.13.37.15.3.07.3-.1.38-.19,0-1.08-.32.05.18v0l0,0,0,.15.15.42.24.47.3.39.32.16.71.61-.1.2h-.26l-.45-.19.2.43-.13.13-.07,0-.09,0v.22l.15.06.23.26.12.07h.18l.46-.19,1,.06.35.14v.23l-.67-.25-.23,0,.76,1.23.21.64-.38.38.32.13.48,0,.43-.2.19-.4v-.32l0-.19.05-.13.08-.18.07-.26-.13-.42,0-.25.25-.27.78-.16.33-.28.29-.39,1-.74-.14.35,0,.32.07.3.19.26-.39.08-.18.29,0,.4v.46l0,.65-.2.9-.06.51.31-.24.33,0,.67.22-.38-.77-.07-.35.15-.31.3-.11.43,0,.42.11.27.18-.07.21-.08.38-.07.21h.72l-.07.34,0,.13.1,0,.13.12.06,0,.17,0,.07,0v.08l0,.26v.07l.43.56.25.07.27-.32.27-.45.11.16,0,.38.08.21.66.07.3.13,1,.77.45.54.17.12h.51l2.32-.59-.3.8,1.18.09.55-.1.64-.69.11.28-.06.42-.46.35-.75.89-.08.44-.46.53-.31.48-.27.24-.09.13-.06.23v.18l0,.19-.12.21.79-.05.35-.15.7-.56.35-.14.73-.09-.69.31-.16.18-.27.58,0,.23.3.08-.79.55-.22.28.42,0,.85-.45,1.84-.54,2.08-1.87.94-.45.84.29.18-.52.35-.59.39-.4.3.07,0,.27-.15.21-.4.35-.11.24-.1.49-.09.29-.26.47-1,.94-.32.42-.8,1.41.18.18.09.24v.28l-.15.31.18.14.31.39.51.13.24.17.14.32,0,.48.12-.13.28-.14.12-.11.06-.14.16-.5.08-.19.3.41-.36.43h0l.11.16.59.36.67-.16,1.16-.84,1.52-1.73.21-.14.21,0-.06.18-.06.19.25.21.27.09.61.07.67-.1.72-.32.79-.75.32-.13h.17l.82.2.17,0,.14-.43-.07-.32-.21-.46-.3-.32-.18-.12-.1-.14.22-.11.16,0,.11,0,.06-.36.16-.27.63-.4.6-.67.13-.75.19-.79.28-.13.31-.52.11-.78v-.46l-.21-.47-1.17-.06L66,345l.37-.31,1.58-.46.2-.31,0-.5-.1-.41.09-.42.18-.09.29-.34.21-.51.09-.29Zm-20.11,21,.07.15.08-.16.08-.09v-.06l-.21,0Zm.38-1.51-.15.25.28-.1.16-.24-.16,0Zm.66-.46.34.22.17,0,0-.13-.28-.54-.14-.17-.09,0-.12.29,0,.17,0,.08,0,.05Zm.39.42-.12,0v-.08l-.06-.07-.15-.07-.24,0-.14.09.57.56.22.12V361l-.06-.17.05-.07.12,0,0-.08-.07-.06ZM51.55,358l-.13,0v-.21l1.22-1.05.49-.85-.2-.92,0-.11.07-.3-.23-.16-.08,0,.07-.06.07-.07.07-.06.1,0-.1-.35v-.33l.09-.24.4-.19.09-.23.06-.31.11-.28.32-.36.35-.29.28-.4.11-.66-.53-.12-.44.34-.37.6-.33.7-.42.43-2.86.48-.28.14-.52.38-1.47.29-.23-.15.07-.34.32-.73-.43.1-.21.65-.12.83-.16.65,2.73.22v.2H48l-.3.09-.55.4-.31.12.19.28.4.23.17.19,0,.26,0,.33,0,.36.09.36-.09.33,0,.35v.77l.24-.13.64-.19.24-.37.52-.52.18-.24-.06.41-.13.24-.09.22.07.36.18-.18.11.09,0,.28,0,.41h.09l0-.33,0-.13.08,0,.48-.6.12-.31.21.48.19.55.19-.22.16-.06.36.06.08-.11.19-.52.14-.18-.18-.18Zm-5.18,1.35.1-.31.22-.13.24.07.15.28h.1l.08-.44,0-.5v-1.09l-.28-.46-.28-.1-.14.28.09.68-.31,0-.06-.3V357l-.18-.19-.23.16-.09.36v.47l.06.44.09.34.18.48.16.36Zm-7.66-4.77-.23-.33-.09-.09.14-.12.15-.07h.15l.17,0v-.22l-.5-.39h-.8l-.82.17-.3.21-.23.35,0,.33.26.14v.19l-.08,0-.22.19.06.37,0,.08-.13.16.36.23.47,0,.46-.24.33-.36-.07-.13-.06-.05.15,0,.15-.09.13-.12-.51-.19Zm.23-.11-.1,0-.11.14-.4.1-.13.25v.09l.11.12H39l.17-.15,0-.14-.18,0v-.06l.07-.05.07,0,.06,0,.09,0,.09-.06-.1-.14Zm1,8.76.14.09,0-.26-.17.07Zm-2.47-2,0,.14v.11l0,.08,0,.12.08.08.06,0,.08-.1,0-.16-.1-.2ZM40,350.84l.27-.63,0-.2-.21-.09h-.5l-.25.1-.2,0h-.23l-.06.17.14.46h.16l.2.29.24.08h.28Zm-3.63-1.79,0-.16-.11-.11-.14-.06-.21-.26-.35-.1-.16.05,0,.15.13.18.06.16.09.1.21-.06.39.17Zm-1,1.28-.08.06-.14.28,0,.07.16.07.42,0,0-.15-.2-.22Zm2.11,10.07-.11-.19-.29,0-.06,0,0,.16,0,.12.06,0v.07l-.12.1,0,.11.11.08.15-.05.21-.24Zm-2-7.09-.17-.1h-.57l0,.17.1.12.26.19h.48l0,0,0-.07,0-.11Zm5,2-.21,0-.22-.21-.18.06-.21.13-.09.2.14.24.07.09.4.06.24,0,.29-.1.08-.22-.19-.17Zm-4.1-3.8,0-.15-.31,0-.07.19.19,0Zm5.2.89.24-.28.09-.09V352l-.07-.15-.13-.1-.14,0-.31.22v.1l.22.37Zm4.95-3.71-.06-.06-.36.05-.34.16-.31.31-.25.49.56.22.28,0,.27-.19-.12.44-.08.21-.1.19h.4l.45-.18.43-.29.34-.36-.13-.31-.16-.08-.21,0-.22,0-.4-.23v-.34Zm-3.61,0,.19.23.31.07.16,0,1.29-.44.15-.29-.22-.22-.43,0-1.35.37-.1.1Zm-.15-.85-.13,0-.24.22-.26.52.12,0,1.4-.67,0-.21ZM46,359.24l-.21.27,0,.18,0,.14,0,.19.13.16.16,0,0-.16.13-.39.07-.26-.06-.11ZM34.1,350.18l-.13.12-.21,0,0,.08-.11.09v.1l.08.08.48.08.07-.09.07,0h.09l.07,0,0-.13-.15-.22Zm8.63.74.24-.09h.35l.34.15.19.32-.24.33.22,0,.67-.17.06,0,.18-.18.06-.09.12-.12.12.08.11.11.11,0,.28-.12.08-.15,0-.34-.27-.33-1.06-.43-1.73-.12-.37.07-.34.35-.11.54,0,.41H42l.3-.06.4.26.39.1.27-.58Zm2.85,1.49-.39.42,0,.2.21.06.17-.08.11-.1.06-.11,0-.09.07-.06H46l0,0,.08-.07,0-.14-.09-.08Zm-4.67,1.81-.09-.08.9-.79-.2-.42h-.25l-.23.16-.42.45-.7.28-.22.15.23.8.4.41.46-.06.42-.55-.09-.08Zm.87,9-.08,0-.05.11v0l.27-.05.06-.05.09-.12-.17,0Zm.78-9.8-.11.09-.05.12v.1l-.06.07-.19.12-.14.18.09.06.61-.36.1-.37-.11-.07Zm-.07,1-.19.18-.08.3.06.13h.16l.15-.07,0-.2v-.25Z" transform="translate(-3.89 -2.52)"/>

<path id="445170" title="Satakunnan SHP" class="cls-1" d="M32.4,309.74l-.17-.18-.25-.08-.13.11,0,.13.1.13.21.44.18.24.17.06,0-.15-.32-.48v-.16h.13Zm-1.17,4.72-.13-.08-.19.16v.18l.23,0Zm1.07,8.82.14,0,.28-.12,0-.07-.08-.07-.06-.07-.42-.21-.12.11.13.27Zm-.65.45.51.27.12,0,0,0-.11-.11-.49-.48,0-.27.09-.26-.17-.13-.25.16-.09.19v.08l-.06.07-.11,0-.05.17.06.27,0,.12h0l.08.05h.25Zm1.38-5,.22.14.14,0,.07-.08v0l-.26-.32H33l-.21.13-.06.11.06.07.08-.06Zm-.06-8.5.33.09h.1l0-.13.06-.08.11,0,.06-.11,0-.13,0,0-.54-.2-.2.31-.16,0,0,.1Zm22.28,16.55-.73.13-.18,0-.08-.3.1-.16.22-.27.35-.34-.08-.19-.18-.13-.27-.35-.16-.54-.05-.36,0-.36h.41l-.1-.6-.27-.44-.84-.6-1.79-.4-1,.06-.28-.11-.17-.22-.07-.25,0-.26-.09-.25-.82-1.23-.12-.22,0-.27.3-.21v-.2l-.07-.2L49,317.37l.1-.22.43.08.39.17.18-.1.06-.17.09-.17.12-.08.13,0,.1-.13,0-.27v-.05l0-.08.09-.11.74-.18,0-.14-.06-.16-.06-.31,0-.36,0-.23-.35-.26-.4-.16-.49-.47-.6-1,0-.61.9-.93.35-.78-.08-.53.06-.18.29,0,.25-.5-.07-.63L51,308.5l-.3.27-.09.26-.17.09-.13-.31-.05-.32,0-.29.07-.1.24-.59.25-.76.3-.46.33-.27.54-.33.47-.49.24-.51,0-.79-.48-.57-.32-.26-.38-.14v-.17l.09-.13.51-.13v-.26l-.43-.25-.18-.31-.05-.3-.23-.38-.22-.06-.4-.2-.28-.43-.07-.41-.25-.52-1.33-.76v-.36l.65-.79.48-.39.56-.29,1,0,.32-.19.32-.34.05-.14-.05-.21,0-.57v-.4L52,294.5l-.05-.43.08-.47.26-.25h.58l.34-.08.09-.35L53,290.69v-.88l-2-.41-1.26-.63-.47.07-.22,1-.19.61-.2.47-.55.8-1.55,1.62-.28.41-.66.72-1.61.69-.77.59L41.59,298l-.67.54-1.25.25-4.22-1.1-1.73-.15-.79.09-.74.4-.31.43-.27.55-.31.49-.41.3-.3.44h0l.13,0,.67,0,.14,0,.09.23,0,.29.06.25.3.2,0,.21-.12.22-.14.11.13.41.23.43.44.66-.06.47.16.2.25.1.2.18,0,.37-.1.42-.14.43,0,.38.29.71,1,.73.39.49-.23.08-.5-.41-.27-.09v.19l.34.77,0,.23-.12.46,0,.26.22.28.31.16.27.23.33,1.32.5.78,1,1v.23l-.43-.15-.94-.66-1.7-.75-.37.07-.24.1-.09.07,0,.14.11.34.6.84.2.07.4-.14.21.07.08.17.31.89-.53.31-2-.31.29.31,1,.53.47.49.23.34.21.45-.45.25-.94-.1-.43.27.2.14.41.15.2.13.22.23.08.2.1.62v.17l0,.28V319l0,.16.12.08,0,.18v.31l0,.55,0,.17v.23h-.6l.07.4-.13.17-.21.15-.14.32.71.35.29.29.21.64-.46.13-.44.27,0,.11.07.3-.48,0-.22.06-.2.19h.2l-.2.44.1.1.1.07.1,0h.1l-.36.19h-.15l.16.24.1.3.15.73-.18.32.06.38.2.35.21.2-.42.16-.87-.44-.41.28.36.07.24.22v.08h0l.17,0,.46,1,.63.33,1.19-.13.39-.25,0-.2,0-.35.12-.26.23-.09.18.15.08.35.05.37.07.23.37.24.47.09.49-.09.23-.13.16-.42v-.25l.19-.22.33,0,.19,0,.15.1,0,.07-.18.37.52.26.9.76.35.14.32.21,0,.16v.22l0,.18,0,.12.09.25.39.44.16.36V332l.25.31,2.14.39.33-.1.61-.78.46-.3,4.65-.58.17-.13-.11-.1-.46-.57.2-.35.33-.13,2.25.08.5-.11.65-.29.39-.49-.12-.84.12-.19.15-.41,0-.38-.14-.17v-.37l.21,0,1.2,1.11.7.28,0-.36.12-.23.22-.14.14,0,0-.25ZM31.38,325l-.05-.1-.06.06,0,.12,0,.05h.07Z" transform="translate(-3.89 -2.52)"/>

<path id="445193" title="Helsingin ja Uudenmaan SHP" class="cls-1" d="M63.71,364.13l-.17.12.13.17.08-.06.09.13v-.38l-.07,0ZM68.87,360l-.33-.09-.33.11-.24.29-.1.24,0,.06.08,0,.22.2.22,0,.12-.05,0,0v-.09l.19,0,.17-.17v-.24l0-.05Zm-7.25,2.56h-.81l-.07.06-.05.09,0,.09.08,0,0,.08,0,.07-.08,0,0,.07.09.15,0,.05.62-.16.07-.19.15-.13,0,0,0,0v0l0-.07Zm-1.63-.2h-.33l-.08.1.2.17.3,0,.13-.09,0-.08-.16-.08Zm-5.41,3.44-.12,0,0,.2.09,0,0,0,0,.05.06.05,0-.09,0-.18Zm31-11.15-.2.2-.07.21v.13l0,.09h.09l.13-.09.22,0,0,0V355l0-.08h.1l0-.1-.16-.17Zm20.92-10.52,1.28-2.51-.15-.11-.62-.12-.39-.47-.35-.59-.5-.5-1-.59-.29-.51v-.41l0-.47-.11-.16L104,337l-.19-.24-.27-.08-.51.07-.3-.09,0,.22v.21l0,.16.06.07-.16.54-.28.35-.32.2-.7.08-1.36-.34h-.85l-.41-.1-.22-.19-.14-.25-.18-.21-.34-.11-4.1,1.37-.57,0-.71-.46,0-.81-.17-.8-.25-.66-.28-.37h-.47l-1,.87-.66.19-.37-.15-.37-.35-.77-1-.17-.29-.08-.28,0-.06-.2-.09-1.25.31.11.45.17.28.33.32.1.23v.17l-.25.16-.25.08-.38.22L86,337l-.15.3-.08.39.05.13.53-.44.36-.09.73.2.13.12-1.15.56-.16.2.17.81,0,.14-.17.09-1-.44-.49-.05-.46.1-.77.35-2.37.32-2-.18-.31.16-.25.56-.1.57,0,.84,0,.34-.61.59-.92.17-.72-.32-.13-.41-.11-.57-.23-.09-.61-.08-.46.23-.08.37v.4l-.29.09-.47-.95-.26-.31-.62-.37-3.61-1-.75.12-.23.47v.38l.2.26.18.09.11.34-.09.29-.21.51-.29.34-.18.09-.09.42.1.41,0,.5-.2.31-1.58.46L66,345l-.28.72,1.17.06.21.47v.46l-.11.78-.31.52-.28.13-.19.79-.13.75-.6.67-.63.4-.16.27-.06.36-.11,0-.16,0-.22.11.1.14.18.12.3.32.21.46.07.32-.14.43-.17,0-.82-.2h-.17l-.32.13-.79.75-.72.32-.67.1-.61-.07-.27-.09-.25-.21.06-.19.06-.18-.21,0-.21.14-1.52,1.73-1.16.84-.67.16-.59-.36L55.7,356h0l-.12.15-.23.36-.1.37.09.45.25.31.32.2.35.15.69,0,1.46-.32.77.3-.23.19-.35.73-.21.32-1.11.42-.25.26V360l-.15.88.05.32.1.19.1,0,.05-.29.16-.27.58.19,0-.21.14-.16.16,0,.16.06.15.14,0,.11,0,.19,0,.1h.29l.39-.55,1-2.17.25-.22-.09.6-.26.88-.22.61-.37.66-.32.41-.36.19h-.49l-.18,0h-.17l-.07.22.11.63-.6.07-2.08,1-.6.12-.21.15-.38.68-.26.19.25,0,.88-.2.28-.16.34-.07.9.15.19-.17,2.51-.42v-.2l-.27-.12-.16-.47v-.54l.22-.34,1.32-.74.57-.65.49-.86.14-.18.33-.24.14-.17L62,359l0-.37.06-.31.15-.13.22-.11.1-.26.07-.31.12-.23.17-.12.54-.19-.13.32-.05.27,0,.26.1.26,0,.21-.2.15-.43.14-.22.23L61.88,360l-.16.44h.34l.63-.32,1-.28h.17L64,360l.16.36.19.13,2.41-.33.42.33,1.08-1.07,1-.18.21-.13.23-.24.17-.3.12-.28.16-.2.27,0v.21l-.25.34.1.31.28,0,.27-.47.17.15h.15l.55-.33.13,0,.26.13.23.18.24.07.28-.17-.37-.27v-.25l.26-.15.41,0,.51.22h.2l.13-.06.46-.33-.2-.22.25-.35.35-.11.71.06-.1.34,0,.3v.27l0,.2-.19.28-.21.15-.17.22-.09.49.25-.17.3-.39.26-.16.11.5.67-.9.38-.35.26,0-.16.26-.42,1-.12.4.43,0,.33-.13.29-.27.58-.88,1-.73v-.18l-.3-.22.3-.33.12-.2.08-.28-1,.4.11-.35.18-.15.21-.09.19-.21.14-.37-.09-.15-.21-.09-.24-.2-.17-.32.08-.09.22.06.91.52.17.22,0,.24,0,.33.11.26H80l.07-.13-.06-.37,0-.22.1-.13.12-.08.49-.17.76-.11.19-.12.4-.36.21-.13-.3-.83.53-.12.38.45,0,.53-.55.17.17.36.3.11,1.25-.1.16-.24.34-1.42.21-.4.3.06.1.34-.07.46-.15.42-.19.21.19.34.27.1.23-.26h.24l.09-.18-.29-.18.16-.25.63-.4,0,.13,0,.09,0,.21h.33l.89-.22.29-.22-.23-.29h.2l.13-.1-.18-.24-.54-.34,0-.25.26.2.18.07.06-.14v-.36l0-.12.08,0,1.37,0,.45-.16,0-.15,0-.34,0-.14.55.16.18.21,0,.44,2.08,0,.12-.09.08-.16.08-.5.1-.1.1,0,.07-.09.07-.41,0-.4-.08-.31-.22-.14v-.18l1.13-.34.39-.27.25-.26.33-.25.32.05.21.64h-.81v.23l.31.19-.18.14-.11.28,0,.4.09.2,1.18,1.36.38.21.28-.15v-.18l1-.42-1-.51-.52-.39-.09-.52.21-.22.25.19.44.64.29.12.32,0,.28.11.23.34-.11.21.2.29.18.18.22.11.3,0-.13-.59-.42-.78-.14-.45,0-.4.34-.62.14-.61-.26-.18-.32-.31-.53-.73.38.16.31.23.87.9.13.09.17,0,.14-.08.11-.16.13-.14h.18l-.13.39.61,1,0,.68.76-.2.12-.16.1-.36,0-.35-.1-.17-.19-.07-.13-.19-.29-.53-.55-.38-.16-.23-.08-.36.16,0,.22,0,.11-.16v-.26l0-.3-.1-.26-.37-.21-.31-.53-.16-.2-.81-.39v-.22l.43,0,.51.25.48.4.53.75.19.15.48.27.58.61.12.21.12-.08.29-.33.13,0,1.39.25-.45-.66-.2-.42,0-.36h.2l.25.29.24.36.17.17.13.22.16.5.21.48.26.23.09-.1v-.21l0-.21.17-.09.16,0,.11-.07.05-.18,0-.34.28.41.16.14.16.06-.11-.48.1-.13h.41l.14-.14.13-.19.24-.49-.44-.92Zm-49.4,17.56-.09-.17-.08,0,0,.16,0,.13,0,.1.06.09,0,.09.1.16.22,0,0-.17-.06-.09v-.07l0-.12ZM97,352.77l-.12.26.1.31.22,0,.24-.11.17-.13.19-.39-.53,0Zm-3.54-2.38-.26.54.09.6.32.46.45.13-.21.47-.07.21.12.12.36.21,0-.42.14-.29.24-.19.25-.11.11-.21-1.27-1.35Zm9.39-1.21-.17-.23-.34-.13-.16,0-.09.07,0,.13.12.18.2.5.08.06.41,0,.1,0,.06-.07.08-.15-.06-.21Z" transform="translate(-3.89 -2.52)"/>

<path id="445131" title="Ahvenanmaa" class="cls-1" d="M15.39,356.11l.18-.53-.29-.61-.33-.1,0,.2.15.61L15,356l-.2-.35-.33-.88-.1.41-.16.45-.09.49.05.48.1.13.5.28.14.16.1.17.11.06.17-.17-.13-.58Zm1.67,2.79-.54-.25-.33-.08-.56.63-.3.66,0,.53.33.14.23-.26,0-.43.21-.09.41-.05.47,0,.71-.41-.15-.29Zm1.8-1.15.08-.26.14-.22.09-.2L19,357l-.22.1,0,.1.14,0-.05,0-.5.07-.27.15,0,.47.43.14.28-.19Zm-1.43-.21-.3.43-.2.36.18.21.44-.11.28-.45.17-.78-.2.05Zm-11.09-4,0-.18-.11-.18-.25-.31-.06-.23v-.31l-.06-.26-.09-.19-.3-.3-.21-.11H5l-.16.16-.11.18-.27.36-.08.14,0,.3,0,.33v.29l-.11.22-.18.18-.07.12v.13l0,.27.16.64.25.41.31.14.29-.16.22-.41,0-.44-.06-.47-.11-.5.26.28.34.65.21.28.11-.05.13,0,.12,0,0-.25,0-.53Zm10.48-1.48.08.23v.33l0,.13v.2l-.07.2v.15l.17.06.72-1.44v-.22l0-.16-.06-.13-.1-.09-.25.18-.46-.3-.31.12-.17.38,0,.45.12.26Zm-5,4.54.09-.31,0-.22-.1-.11-.1-.07-.06-.1v-.42l0-.46.17-.94-.14.18-.11.2-.11.16-.15.06-.09-.09-.11-.21-.13-.21-.42-.18-.23-.21-.2-.3L10,353l0-.31.19-.14.4-.06v.35l0,.11-.09.15.24.28.76.33,0-.29,0-.26.09-.24.14-.21-.25-.23L11.1,352l-.21-.59-.06-.52.4.35.32-.28.13-.52-.15-.38v-.2l.56.1-.06.5-.31.63-.19.5.12.56.24.29.19.35,0,.71h.1l.25-1,.43-.48.54-.15.6,0-.24.37-.72.06-.31.29-.1.3-.1.45,0,.4.12.18h.61l.16.07.1.12.11.08.19-.09.05-.1.12-.41.08-.19.14-.17.12,0h.14l.16-.09-.11-.17-.2-.44.4-.22.1-.39.52-1-.59-.09-.3-.14-.23-.19-.08.08-.22.12.15-.78-.2-.32-.77-.32-.31-.48-.17-.15-.16.11-.15,0-.5-.29-.22-.05.07.22.13.6-.25-.37-.36-.3-.38-.15-.62.15L10,348.2l-.07-.56-.1-.4-.36-.1H9.12l-.32.15-.3.36-.14.3-.1.29-.13.24-.23.17.37,0,.25.22.21.38.22.5.14.12.11-.19.16-.53.13-.23.07,0,0,.15.1.17.19.24.16.34.12.43,0,.52-.08.15-.17.13-.18,0L9.71,351v-.27l0-.22-.07-.43-.1.38,0,.63-.07.41-.31.4-.1.83-.24-.27-.26-.17.05.29,0,.41,0,.37-.11.16-.23-.07-.1-.21L8,352.52l-.11-.25-.12-.21,0-.26.23-.65.24-.86L8,350.18l0,0-.09.09-.1-.1-.31-.1.13.33.07.15.11.13-.56.36-.2,0-.14.11-.1.26-.09.34-.12.31,0-.54-.13-.23-.24-.06-.29,0,.32,1.21,0,.22.16.16.09.38.1.86.23.74.55,1.29.22.82.16-.38.22-.28.27-.11.26.16,0,.3.13.14.19,0,.2-.07.14-.14,0-.16.05-.16.19-.14h.35l.2.29.26.92-.05.29.16.08.14-.18-.1-.48,0-.41.25-.21.6-.1.37.21Zm2.48,1.52-.29-.88-.44-.66-.49,0-.42-.24-.49.66-.51.27-.12.62.49.1.29.32h.38l.25.35-.06.33-.17.26.26.22.42-.11.29-.18.19.18-.13.63.18-.15.36-.43.19-.42,0-.28Zm6.94-5.73-.23.08-.07.31v.34l.1.17.23.14.31-.15.13-.29-.15-.27Zm3.28,8.74-.13-.19h-.19L24,361l-.13.25.08.3.11.11.18.15.37.14.11-.14-.1-.34Zm1.14-.27.19-.06v-.15l-.09-.06h-.16L25,360.4l-.22.14-.07.12,0,0,.08.15.2.22.75.42.12-.16-.1-.28-.22-.17v-.05Zm1.64-15.8-.09-.14-.06,0-.12,0-.18.18-.08.22.09.36.19.18.15-.1.12-.34Zm-4.5,4,0-.29-.06-.28-.17-.13-.17,0-.11.05,0,.16-.06.17-.06.09-.05.1-.12.32,0,.15v.35l0,.2.11.06.55-.42.12-.21Zm.38,1.84-.15-.15h-.27l-.09.68.14.74.42.19-.11-.39.19,0,.22-.07.17-.21,0-.35-.1-.14Zm-1.95,4.46-.05-.17-.16-.26-.13-.14-.1,0-.14.06-.12.16.05.37.25.46.23.19.15,0,.1-.2,0-.28Zm-1.08,2.53,0-.08,0-.13-.09,0-.12.06,0,0v-.11l-.07-.1h-.1l-.11.07-.15,0-.2,0-.2.23-.38.71-.07.34.17.19.22,0,.19-.13.09-.21.07-.07.39.36.15,0,.13-.24.15-.19.05-.21,0-.18L20,358l0,0,.17,0,0,0-.08,0Z" transform="translate(-3.89 -2.52)"/></g></svg>